<?xml version="1.0" encoding="utf-8"?>
<!-- Generator: Adobe Illustrator 25.2.1, SVG Export Plug-In . SVG Version: 6.00 Build 0)  -->
<svg version="1.1" id="Layer_1" xmlns="http://www.w3.org/2000/svg" xmlns:xlink="http://www.w3.org/1999/xlink" x="0px" y="0px"
	 viewBox="0 0 457 457" style="enable-background:new 0 0 457 457;" xml:space="preserve">
<style type="text/css">
	.st0{fill:#006FB5;}
</style>
<g>
	<g>
		<path class="st0" d="M317.8,57.7L317.8,57.7c-34.4-0.2-67.2,14.9-89.3,41.3c-22-26.5-54.9-41.7-89.3-41.3
			c-64.6,0-117,52.4-117,117c0,110.8,193.3,218.9,201.1,223.1c3.2,2.1,7.3,2.1,10.4,0c7.8-4.2,201.1-110.8,201.1-223.1
			C434.9,110,382.5,57.7,317.8,57.7z M228.5,376.9C198.2,359.1,43,264.5,43,174.7c0-53.1,43-96.1,96.1-96.1
			c32.5-0.4,62.9,16,80.5,43.4c3.6,4.9,10.4,6,15.3,2.4c0.9-0.7,1.8-1.5,2.4-2.4C266.4,77.5,326,65,370.4,94.1
			c27.2,17.8,43.6,48.1,43.5,80.6C414,265.6,258.8,359.6,228.5,376.9z"/>
	</g>
</g>
<g>
</g>
<g>
</g>
<g>
</g>
<g>
</g>
<g>
</g>
<g>
</g>
<g>
</g>
<g>
</g>
<g>
</g>
<g>
</g>
<g>
</g>
<g>
</g>
<g>
</g>
<g>
</g>
<g>
</g>
</svg>
