<?xml version="1.0" encoding="utf-8"?>
<!-- Generator: Adobe Illustrator 25.2.1, SVG Export Plug-In . SVG Version: 6.00 Build 0)  -->
<svg version="1.1" id="Layer_1" xmlns="http://www.w3.org/2000/svg" xmlns:xlink="http://www.w3.org/1999/xlink" x="0px" y="0px"
	 viewBox="0 0 457 457" style="enable-background:new 0 0 457 457;" xml:space="preserve">
<style type="text/css">
	.st0{fill:#FFFFFF;}
</style>
<g id="Out_line">
	<g>
		<rect x="225.2" y="74.5" class="st0" width="12.8" height="25.7"/>
	</g>
	<g>
		
			<rect x="161.6" y="100.8" transform="matrix(0.7071 -0.7071 0.7071 0.7071 -31.1764 152.0934)" class="st0" width="12.8" height="25.7"/>
	</g>
	<g>
		<rect x="128.9" y="170.8" class="st0" width="25.7" height="12.8"/>
	</g>
	<g>
		
			<rect x="155.2" y="234.3" transform="matrix(0.7071 -0.7071 0.7071 0.7071 -121.0429 189.3061)" class="st0" width="25.7" height="12.8"/>
	</g>
	<g>
		
			<rect x="282.2" y="107.3" transform="matrix(0.7071 -0.7071 0.7071 0.7071 6.0403 241.9503)" class="st0" width="25.7" height="12.8"/>
	</g>
	<g>
		
			<rect x="288.7" y="227.9" transform="matrix(0.7071 -0.7071 0.7071 0.7071 -83.8268 279.1679)" class="st0" width="12.8" height="25.7"/>
	</g>
	<g>
		<rect x="308.6" y="170.8" class="st0" width="25.7" height="12.8"/>
	</g>
	<g>
		<path class="st0" d="M379.7,160.3c8.2,19.6,12.4,40.6,12.3,61.8v6.4c0,70.8-57.6,128.4-128.4,128.4c-12.1,0-22.5-8.4-25.1-20.2
			c11-3.1,18.7-13.2,18.7-24.7v-1.1c10-3.5,15.3-14.5,11.7-24.5c-0.8-2.4-2.1-4.6-3.8-6.4c7-7.8,6.5-19.8-1.3-27
			c1.1-11.2,6-21.6,13.9-29.5c25.6-25.6,25.6-67,0-92.5s-67-25.6-92.5,0s-25.6,67,0,92.5c0,0,0,0,0,0c7.9,7.9,12.9,18.3,13.9,29.5
			c-7.7,7.1-8.3,19.1-1.3,27c-7.1,7.9-6.4,20.1,1.5,27.2c1.9,1.7,4.1,3,6.4,3.8v1.1c0,11.9,8.1,22.2,19.7,25
			c2.8,18.8,19,32.8,38.1,32.8c77.9,0,141.2-63.4,141.2-141.2v-6.4c0-22.9-4.5-45.6-13.3-66.8L379.7,160.3z M205.9,267.1
			c0-3.5,2.9-6.4,6.4-6.4h38.5c3.5,0,6.4,2.9,6.4,6.4c0,3.5-2.9,6.4-6.4,6.4h-38.5C208.8,273.5,205.9,270.6,205.9,267.1z
			 M220.1,196.5H243l-10.3,51.4h-2.3L220.1,196.5z M194.4,214.4c-20.5-20.5-20.5-53.8,0-74.4s53.8-20.5,74.4,0
			c20.5,20.5,20.5,53.8,0,74.4c-9.1,9.1-15.1,20.8-17.1,33.4c-0.3,0-0.5,0-0.8,0h-5l11.3-56.5c0.7-3.5-1.6-6.9-5-7.6
			c-0.4-0.1-0.8-0.1-1.3-0.1h-38.5c-3.5,0-6.4,2.9-6.4,6.4c0,0.4,0,0.8,0.1,1.3l11.3,56.5h-5c-0.3,0-0.5,0-0.8,0
			C209.5,235.2,203.5,223.5,194.4,214.4z M212.3,299.2c-3.5,0-6.4-2.9-6.4-6.4c0-3.5,2.9-6.4,6.4-6.4h38.5c3.5,0,6.4,2.9,6.4,6.4
			c0,3.5-2.9,6.4-6.4,6.4H212.3z M218.7,312h25.7c0,7.1-5.7,12.8-12.8,12.8S218.7,319.1,218.7,312z"/>
	</g>
	<g>
		<path class="st0" d="M89.2,296.2c-41-78.5-10.5-175.4,68-216.3c23-12,48.5-18.2,74.4-18.2h0c23.5-0.1,46.6,5.1,67.9,15l5.4-11.6
			c-22.9-10.7-48-16.3-73.3-16.2h0c-95.8,0-173.4,77.7-173.3,173.4c0,27.8,6.7,55.2,19.5,79.9L89.2,296.2z"/>
	</g>
	<g>
		<path class="st0" d="M158.2,379.2c16.8,7.9,34.9,13,53.3,15.1l1.5-12.8c-17.1-2-33.8-6.7-49.4-14L158.2,379.2z"/>
	</g>
	<g>
		<path class="st0" d="M404.9,36h-70.6c-10.6,0-19.2,8.6-19.3,19.3v61.5l-17.4,17.4c-2.5,2.5-2.5,6.6,0,9.1c1.2,1.2,2.8,1.9,4.5,1.9
			h102.7c10.6,0,19.2-8.6,19.3-19.3V55.3C424.1,44.6,415.5,36,404.9,36z M411.3,125.9c0,3.5-2.9,6.4-6.4,6.4h-87.2l8.3-8.3
			c1.2-1.2,1.9-2.8,1.9-4.5V55.3c0-3.5,2.9-6.4,6.4-6.4h70.6c3.5,0,6.4,2.9,6.4,6.4V125.9z"/>
	</g>
	<g>
		<rect x="353.5" y="55.3" class="st0" width="25.7" height="12.8"/>
	</g>
	<g>
		<rect x="392.1" y="55.3" class="st0" width="12.8" height="12.8"/>
	</g>
	<g>
		<rect x="340.7" y="74.5" class="st0" width="25.7" height="12.8"/>
	</g>
	<g>
		<rect x="379.2" y="74.5" class="st0" width="25.7" height="12.8"/>
	</g>
	<g>
		<rect x="340.7" y="93.8" class="st0" width="38.5" height="12.8"/>
	</g>
	<g>
		<rect x="392.1" y="93.8" class="st0" width="12.8" height="12.8"/>
	</g>
	<g>
		<rect x="340.7" y="113" class="st0" width="25.7" height="12.8"/>
	</g>
	<g>
		<path class="st0" d="M166.9,316c-1-2.4-3.3-4-5.9-4H58.3c-10.6,0-19.2,8.6-19.3,19.3v70.6c0,10.6,8.6,19.2,19.3,19.3h70.6
			c10.6,0,19.2-8.6,19.3-19.3v-61.5l17.4-17.4C167.3,321.1,167.9,318.4,166.9,316z M137.2,333.2c-1.2,1.2-1.9,2.8-1.9,4.5v64.2
			c0,3.5-2.9,6.4-6.4,6.4H58.3c-3.5,0-6.4-2.9-6.4-6.4v-70.6c0-3.5,2.9-6.4,6.4-6.4h87.2L137.2,333.2z"/>
	</g>
	<g>
		<rect x="96.8" y="389.1" class="st0" width="12.8" height="12.8"/>
	</g>
	<g>
		<rect x="58.3" y="389.1" class="st0" width="25.7" height="12.8"/>
	</g>
	<g>
		<rect x="109.6" y="369.8" class="st0" width="12.8" height="12.8"/>
	</g>
	<g>
		<rect x="58.3" y="369.8" class="st0" width="38.5" height="12.8"/>
	</g>
	<g>
		<rect x="83.9" y="350.5" class="st0" width="38.5" height="12.8"/>
	</g>
	<g>
		<rect x="58.3" y="350.5" class="st0" width="12.8" height="12.8"/>
	</g>
	<g>
		<rect x="71.1" y="331.3" class="st0" width="51.4" height="12.8"/>
	</g>
</g>
<g>
</g>
<g>
</g>
<g>
</g>
<g>
</g>
<g>
</g>
<g>
</g>
<g>
</g>
<g>
</g>
<g>
</g>
<g>
</g>
<g>
</g>
<g>
</g>
<g>
</g>
<g>
</g>
<g>
</g>
</svg>
