<?xml version="1.0" encoding="utf-8"?>
<!-- Generator: Adobe Illustrator 25.2.1, SVG Export Plug-In . SVG Version: 6.00 Build 0)  -->
<svg version="1.1" id="Layer_1" xmlns="http://www.w3.org/2000/svg" xmlns:xlink="http://www.w3.org/1999/xlink" x="0px" y="0px"
	 viewBox="0 0 457 457" style="enable-background:new 0 0 457 457;" xml:space="preserve">
<style type="text/css">
	.st0{fill:#006FB5;}
</style>
<g>
	<g>
		<path class="st0" d="M335.2,291.9c-19.2,0-36.2,9-47.2,23l-110.4-63.7c2.8-6.9,4.3-14.5,4.3-22.4c0-7.9-1.5-15.4-4.3-22.4
			L288,142.7c11,14,28.1,23,47.2,23c33.2,0,60.1-27,60.1-60.1c0-33.2-27-60.1-60.1-60.1s-60.1,27-60.1,60.1c0,7.9,1.5,15.5,4.3,22.4
			L169,191.7c-11-14-28.1-23-47.3-23c-33.2,0-60.1,27-60.1,60.1s27,60.1,60.1,60.1c19.2,0,36.2-9,47.3-23l110.4,63.7
			c-2.8,6.9-4.3,14.5-4.3,22.4c0,33.2,27,60.1,60.1,60.1s60.1-27,60.1-60.1S368.4,291.9,335.2,291.9z M335.2,62.5
			c23.8,0,43.1,19.3,43.1,43.1c0,23.8-19.3,43.1-43.1,43.1c-23.8,0-43.1-19.3-43.1-43.1C292.1,81.8,311.4,62.5,335.2,62.5z
			 M121.8,271.9c-23.8,0-43.1-19.3-43.1-43.1s19.3-43.1,43.1-43.1c23.8,0,43.1,19.3,43.1,43.1S145.6,271.9,121.8,271.9z
			 M335.2,395.1c-23.8,0-43.1-19.3-43.1-43.1c0-23.8,19.3-43.1,43.1-43.1c23.8,0,43.1,19.3,43.1,43.1
			C378.3,375.7,359,395.1,335.2,395.1z"/>
	</g>
</g>
<g>
</g>
<g>
</g>
<g>
</g>
<g>
</g>
<g>
</g>
<g>
</g>
<g>
</g>
<g>
</g>
<g>
</g>
<g>
</g>
<g>
</g>
<g>
</g>
<g>
</g>
<g>
</g>
<g>
</g>
</svg>
