<?xml version="1.0" encoding="utf-8"?>
<!-- Generator: Adobe Illustrator 25.2.1, SVG Export Plug-In . SVG Version: 6.00 Build 0)  -->
<svg version="1.1" id="Layer_1" xmlns="http://www.w3.org/2000/svg" xmlns:xlink="http://www.w3.org/1999/xlink" x="0px" y="0px"
	 viewBox="0 0 457 457" style="enable-background:new 0 0 457 457;" xml:space="preserve">
<style type="text/css">
	.st0{fill:#006FB5;}
</style>
<path class="st0" d="M417,75l-18-15.8l18-15.8c2.8-2.5,3.8-6.3,2.4-9.8c-1.3-3.5-4.6-5.7-8.3-5.7h-74.4v-3.2c0-3.4-2.8-6.2-6.2-6.2
	s-6.2,2.8-6.2,6.2v83.1l-50.6,27.5c-0.3-2.2-0.9-4.4-2-6.5l-7.1-13.9c-4.9-9.6-16.7-13.4-26.2-8.5l-5.5,2.8
	c-4.6,2.4-8.1,6.4-9.7,11.4c-1.6,5-1.2,10.2,1.2,14.9l7.1,13.9c1.7,3.3,4.1,5.8,7,7.6c-3.8,5.1-5.6,11.4-7.4,17.9l-1.3,4.7
	c-0.9,3.3,1,6.7,4.3,7.6c0.6,0.2,1.1,0.2,1.7,0.2c2.7,0,5.2-1.8,5.9-4.5l1.3-4.7c2.7-9.5,4.4-14.6,9.6-17.5l9.5-5.1l1.2-0.6
	c0.4-0.2,0.8-0.4,1.1-0.6l67.5-36.7c-0.4,8.4-5,16.4-12.4,20.9l-43.9,26.7c-0.1,0-0.1,0.1-0.2,0.1l-13.7,8.3
	c-2.9,1.8-3.8,5.6-2.1,8.5c1.7,2.7,5.1,3.7,8,2.3l-10.4,31.3l-7.6,3.1l-20.6,8.4l5.9-21c0.9-3.3-1-6.7-4.3-7.6
	c-3.3-0.9-6.7,1-7.6,4.3l-9.4,33.2c-0.1,0.4-0.2,0.9-0.2,1.3l-2.5,45.1c-0.1,1.7,0.3,5-0.5,6.6l-27.3,57.4h-19.8
	c-11.6,0-21,9.4-21,21v17.8c-2.7-1.2-5.6-1.9-8.7-1.9H83.5c-11.6,0-21,9.4-21,21v22.1H47.6c-3.4,0-6.2,2.8-6.2,6.2
	c0,3.4,2.8,6.2,6.2,6.2h363.5c3.4,0,6.2-2.8,6.2-6.2c0-3.4-2.8-6.2-6.2-6.2h-16V267.9c0-11.6-9.4-21-21-21h-37.3V139.3
	c6.8-9.3,9.4-21.4,6.2-32.9c-0.5-1.8-1.8-3.3-3.5-4c-0.9-0.4-1.8-0.5-2.7-0.5V90.6h74.4c3.7,0,7-2.3,8.3-5.7
	C420.7,81.3,419.8,77.5,417,75z M235,124.4c0.6-1.8,1.8-3.3,3.5-4.2l5.5-2.8c1-0.5,2.2-0.8,3.2-0.8c2.6,0,5.1,1.4,6.4,3.9l7.1,13.9
	c1.7,3.3,0.6,7.2-2.4,9.2l-2,1.1l-4.2,2.2c-3.5,1.8-7.8,0.4-9.6-3.1l-7.1-13.9C234.5,128.2,234.4,126.2,235,124.4z M222.6,348.6
	c-2.1-1-4.4-1.6-6.8-1.8l6.8-9V348.6z M251.9,298.9c3-3.6,3.8-7.7,4.4-11c0.2-0.8,3.2-17.4,3.2-17.4s2.9,1.8,3.2,1.9
	c0.2,0.1,0.4,0.3,0.4,0.5l3.4,34.1h-20.7L251.9,298.9z M288.3,264.9l-5.2,42.1h-4.3l-3.5-35.3c-0.4-4.5-3.2-8.5-7.3-10.4l-6.2-3.9
	l4.1-22.9c0,0,17.4,20.7,17.8,21.2C287.4,260.4,288.6,262.3,288.3,264.9z M221.7,294.8c1.2-3.7,1.8-7.6,1.7-11.4l2.2-41.1l28.5-11.7
	l-5.2,28.7c0,0.1,0,0.2,0,0.2l-4.3,23.7c-0.6,2.5-1,6.2-2.6,8.2l-41.7,55.3H197L221.7,294.8z M74.8,404.7c0-4.8,3.9-8.7,8.7-8.7
	h50.3c4.8,0,8.7,3.9,8.7,8.7v22.1H74.8V404.7z M154.8,404.7v-36.9c0-4.8,3.9-8.7,8.7-8.7h50.3c4.8,0,8.7,3.9,8.7,8.7v59h-67.7
	L154.8,404.7L154.8,404.7z M382.7,267.9v158.9H315v-37c0-3.4-2.8-6.2-6.2-6.2c-3.4,0-6.2,2.8-6.2,6.2v37h-67.7v-98.7
	c0-4.8,3.9-8.7,8.7-8.7h50.3c4.8,0,8.7,3.9,8.7,8.7V359c0,3.4,2.8,6.2,6.2,6.2c3.4,0,6.2-2.8,6.2-6.2v-91.1c0-4.8,3.9-8.7,8.7-8.7
	h6.8c0,0,0,0,0.1,0c0,0,0,0,0.1,0H374C378.8,259.2,382.7,263.1,382.7,267.9z M323.7,246.8c-11.6,0-21,9.4-21,21v41
	c-2.2-1-4.6-1.6-7.1-1.8l5-40.7c1-7.9-3.1-13.2-7-18.3c-0.4-0.5-24.4-29-24.4-29l14.7-44.4l40.5-24.6v96.7H323.7z M336.7,78.2V40.2
	H402l-14,12.4c-1.9,1.7-3,4.1-3,6.7s1.1,5,3,6.7l14,12.4L336.7,78.2L336.7,78.2z"/>
<g>
</g>
<g>
</g>
<g>
</g>
<g>
</g>
<g>
</g>
<g>
</g>
<g>
</g>
<g>
</g>
<g>
</g>
<g>
</g>
<g>
</g>
<g>
</g>
<g>
</g>
<g>
</g>
<g>
</g>
</svg>
