<?xml version="1.0" encoding="utf-8"?>
<!-- Generator: Adobe Illustrator 25.2.1, SVG Export Plug-In . SVG Version: 6.00 Build 0)  -->
<svg version="1.1" id="Layer_1" xmlns="http://www.w3.org/2000/svg" xmlns:xlink="http://www.w3.org/1999/xlink" x="0px" y="0px"
	 viewBox="0 0 457 457" style="enable-background:new 0 0 457 457;" xml:space="preserve">
<style type="text/css">
	.st0{fill:#FFFFFF;}
</style>
<g>
	<g>
		<path class="st0" d="M119.8,155.8v38.5c-8.4,2.9-15.3,9.1-19.2,17.4L84,247.2c-10.7,22.9-5.5,49.9,12.8,67.2l48,45.5v76.9
			c0,4.6,3.7,8.4,8.4,8.4h37.6c4.6,0,8.4-3.7,8.4-8.4c0-4.6-3.7-8.4-8.4-8.4h-29.3v-72.1c0-2.3-0.9-4.5-2.6-6.1l-50.6-48
			c-13.1-12.4-16.8-31.7-9.2-48l16.5-35.4c4-8.6,14-11.9,22.2-8.1l82.6,38.5c-11.6,15.6-33,21.5-51.3,13l-22.7-10.6
			c-4.2-2-9.2-0.1-11.1,4c-2,4.2-0.1,9.2,4,11.1l22.7,10.6c9.3,4.3,19.8,6.3,30.6,5.2c17.6,19.1,27.3,43.7,27.3,69.8
			c0,4.6,3.7,8.4,8.4,8.4s8.4-3.7,8.4-8.4c0-27.5-9.2-53.5-26.1-74.6c12.5-5.5,23-15.4,29.2-28.7c0,0,0,0,0,0
			c4.2,1.9,8.7,2.9,13.6,2.9c7.5,0,14.4-2.5,19.9-6.6c5.4,11.3,16.9,19.2,30.2,19.2c5.2,0,10-1.2,14.4-3.3c-2.3,15-6,28.7-9.9,42.9
			c-6.3,23.1-12.8,47-12.8,77.5v46.8h-29.3c-4.6,0-8.4,3.7-8.4,8.4c0,4.6,3.7,8.4,8.4,8.4h37.6c4.6,0,8.4-3.7,8.4-8.4v-55.2
			c0-28.3,5.9-50,12.2-73.1c6.3-23.1,12.8-47,12.8-77.5v-50.2c0-18.4-15-33.4-33.4-33.4c-7.5,0-14.4,2.5-19.9,6.6
			c-5.4-11.3-16.9-19.2-30.2-19.2c-7.5,0-14.4,2.5-19.9,6.6c-5.4-11.3-16.9-19.2-30.2-19.2c-10,0-19,4.4-25.1,11.4
			c-6.1-7-15.1-11.4-25.1-11.4C134.8,122.4,119.8,137.4,119.8,155.8L119.8,155.8z M287,180.9c0-9.2,7.5-16.7,16.7-16.7
			s16.7,7.5,16.7,16.7v50.2c0,9.2-7.5,16.7-16.7,16.7s-16.7-7.5-16.7-16.7V180.9z M236.9,168.4c0-9.2,7.5-16.7,16.7-16.7
			c9.2,0,16.7,7.5,16.7,16.7v50.2c0,9.2-7.5,16.7-16.7,16.7c-9.2,0-16.7-7.5-16.7-16.7V168.4z M186.7,155.8
			c0-9.2,7.5-16.7,16.7-16.7s16.7,7.5,16.7,16.7v62.7c0,4.8,1,9.3,2.8,13.4L186.7,215V155.8z M136.5,155.8c0-9.2,7.5-16.7,16.7-16.7
			c9.2,0,16.7,7.5,16.7,16.7v51.4l-25-11.6c-2.7-1.3-5.6-2.2-8.5-2.7V155.8z"/>
	</g>
	<g>
		<path class="st0" d="M236.9,55.5V25.4c0-4.6-3.7-8.4-8.4-8.4s-8.4,3.7-8.4,8.4v30.1c0,4.6,3.7,8.4,8.4,8.4S236.9,60.1,236.9,55.5z
			"/>
	</g>
	<g>
		<path class="st0" d="M157.4,82.9c4-2.3,5.4-7.4,3.1-11.4l-12.5-21.7c-2.3-4-7.4-5.4-11.4-3.1c-4,2.3-5.4,7.4-3.1,11.4L146,79.8
			C148.3,83.8,153.4,85.2,157.4,82.9z"/>
	</g>
	<g>
		<path class="st0" d="M89.8,123.5l-21.7-12.5c-4-2.3-9.1-0.9-11.4,3.1c-2.3,4-0.9,9.1,3.1,11.4L81.4,138c4,2.3,9.1,1,11.4-3.1
			C95.2,130.9,93.8,125.8,89.8,123.5z"/>
	</g>
	<g>
		<path class="st0" d="M311,79.8l12.5-21.7c2.3-4,0.9-9.1-3.1-11.4c-4-2.3-9.1-0.9-11.4,3.1l-12.5,21.7c-2.3,4-0.9,9.1,3.1,11.4
			C303.6,85.2,308.7,83.8,311,79.8z"/>
	</g>
	<g>
		<path class="st0" d="M375.6,138l21.7-12.5c4-2.3,5.4-7.4,3.1-11.4c-2.3-4-7.4-5.4-11.4-3.1l-21.7,12.5c-4,2.3-5.4,7.4-3.1,11.4
			C366.5,138.9,371.6,140.3,375.6,138L375.6,138z"/>
	</g>
	<g>
		<circle class="st0" cx="228.5" cy="436.8" r="8.4"/>
	</g>
</g>
<g>
</g>
<g>
</g>
<g>
</g>
<g>
</g>
<g>
</g>
<g>
</g>
<g>
</g>
<g>
</g>
<g>
</g>
<g>
</g>
<g>
</g>
<g>
</g>
<g>
</g>
<g>
</g>
<g>
</g>
</svg>
