<?xml version="1.0" encoding="utf-8"?>
<!-- Generator: Adobe Illustrator 25.2.1, SVG Export Plug-In . SVG Version: 6.00 Build 0)  -->
<svg version="1.1" id="Layer_1" xmlns="http://www.w3.org/2000/svg" xmlns:xlink="http://www.w3.org/1999/xlink" x="0px" y="0px"
	 viewBox="0 0 457 457" style="enable-background:new 0 0 457 457;" xml:space="preserve">
<style type="text/css">
	.st0{fill:#006FB5;}
</style>
<path class="st0" d="M18.4,259.7c4.5,6.9,11.4,11.6,19.4,13.4c-5.2,9.9-4.9,22.2,1.6,32.1c4.7,7.1,11.7,11.6,19.4,13.3
	c-1.4,2.6-2.4,5.4-3,8.4c-1.7,8.3,0,16.7,4.6,23.7c4.5,6.9,11.4,11.6,19.4,13.4c-5.2,9.9-4.9,22.2,1.6,32.1
	c9.6,14.5,29.2,18.5,43.7,8.9l31.4-20.8c16.7,8.5,34.6,14.5,53,18c5.8,8.9,12.6,17.1,20.2,24.5l13,12.6c9.5,9.2,24.4,10.6,35.5,3.3
	c13.1-8.7,16.7-26.3,8-39.4c-0.3-0.5-0.7-1-1-1.6c42.6-8.6,81.4-31.2,110.2-64.4c31.2-36,48.4-82,48.4-129.7
	c0-9.1-0.6-18.3-1.9-27.2C432.6,111,386.5,51.3,321.8,24.5c-24-9.9-49.5-15-75.7-15c-41.5,0-81.3,12.7-115,36.8
	c-32.9,23.5-57.6,56-71.3,93.9c-1.3,3.5,0.6,7.4,4.1,8.7c3.5,1.3,7.4-0.6,8.7-4.1c12.8-35.3,35.7-65.6,66.4-87.5
	c31.4-22.4,68.4-34.2,107-34.2c20,0,39.5,3.2,58.2,9.4l-55.4,36.7c0,0,0,0,0,0c0,0,0,0,0,0l-46,30.5h0c-4.1,2.7-7,6.9-7.9,11.8
	c-1,4.9,0,9.8,2.7,13.9l0.6,0.9l-8.9,5.9c-6.4,4.2-14,5.9-21.6,4.7c-10.9-1.8-22,0.6-31.3,6.8l-74.1,49.1c0.5-6.4,1.3-12.8,2.5-19.1
	c0.7-3.7-1.8-7.2-5.4-7.9c-0.4-0.1-0.8-0.1-1.2-0.1c-3.2,0-6.1,2.3-6.7,5.6c-1.9,10.1-3,20.5-3.3,30.9l-20.9,13.8
	c-7,4.7-11.8,11.8-13.5,20C12.1,244.2,13.7,252.7,18.4,259.7z M169.9,375.4l20.8-13.8l4.1,11c1.7,4.6,3.7,9.1,5.8,13.5
	C190,383.5,179.8,379.9,169.9,375.4z M385.4,328.2c-27.6,31.8-65.2,53.2-106.4,60.7c-6.6-16-8.2-33.9-4.2-50.9l16.6-71.7
	c2.6,2.8,6,4.7,9.8,5.5c4.9,1,9.8,0,13.9-2.7l47-31.1c0,0,0,0,0,0c0,0,0,0,0,0l67.8-44.9c0.4,4.8,0.6,9.6,0.6,14.4
	C430.4,251.9,414.4,294.7,385.4,328.2z M208.3,114.2c0.3-1.3,1-2.4,2.1-3.1h0l40.4-26.8l75,111.9c2.1,3.1,6.3,4,9.4,1.9
	c3.1-2.1,4-6.3,1.9-9.4l-75-111.8l57.7-38.2c57.3,25.1,98.4,78,108.2,139.6L360.2,223l-7.8-11.7c-1.3-2-3.5-3-5.7-3
	c-1.3,0-2.6,0.4-3.8,1.2c-3.1,2.1-4,6.3-1.9,9.4l7.8,11.6l-41.3,27.3c-1.1,0.7-2.4,1-3.7,0.7c-1.3-0.3-2.4-1-3.1-2.1L209,117.9
	C208.2,116.8,208,115.5,208.3,114.2z M27.1,238.7c1-4.7,3.7-8.7,7.7-11.4l23.9-15.8c0,0,0,0,0,0l85.2-56.5c6.4-4.2,14-5.9,21.6-4.7
	c10.9,1.8,22-0.6,31.3-6.8l8.9-5.9l75.1,113.4l-19.4,83.9c-5,21.6-2.4,44.4,7.2,64.2c0.1,0.2,0.2,0.4,0.3,0.6
	c1.8,3.7,3.9,7.4,6.2,10.9c4.5,6.8,2.6,16-4.2,20.6c-5.8,3.8-13.5,3.1-18.5-1.7l-13-12.6c-14.1-13.6-25.1-30.5-31.9-48.9l-7.1-19.1
	c0,0,0-0.1,0-0.1c0,0,0-0.1-0.1-0.1c-0.1-0.1-0.1-0.2-0.1-0.3c-0.1-0.3-0.3-0.6-0.5-0.8c-2.1-3.1-6.3-4-9.4-1.9l-72.6,48.1
	c-8.3,5.5-19.4,3.2-24.9-5.1c-5.5-8.3-3.2-19.4,5.1-24.9l6.3-4.2c0,0,0,0,0,0l14.1-9.3c0,0,0,0,0.1,0c0.1-0.1,0.2-0.1,0.2-0.2
	c2.9-2.1,3.7-6.2,1.6-9.2c-2.1-3.1-6.3-4-9.4-1.9l-14.1,9.3c-4,2.6-8.8,3.6-13.5,2.6s-8.7-3.7-11.4-7.7c-2.6-4-3.6-8.8-2.6-13.5
	c1-4.7,3.7-8.7,7.7-11.4l20.4-13.5c3.1-2.1,4-6.3,1.9-9.4c-1.3-2-3.5-3-5.7-3c-1.3,0-2.6,0.4-3.7,1.1l-3.2,2.1l-10.9,7.2
	c-8.3,5.5-19.4,3.2-24.9-5.1c-5.5-8.3-3.2-19.4,5.1-24.9L66,266c0.1,0,0.1-0.1,0.2-0.1l10-6.6c3.1-2.1,4-6.3,1.9-9.4
	c-1.3-2-3.5-3-5.7-3c-1.3,0-2.6,0.4-3.7,1.1l-3.2,2.1c0,0,0,0,0,0l-10.9,7.2c-4,2.6-8.8,3.6-13.5,2.6c-4.7-1-8.7-3.7-11.4-7.7
	C27.1,248.2,26.2,243.4,27.1,238.7z"/>
<g>
</g>
<g>
</g>
<g>
</g>
<g>
</g>
<g>
</g>
<g>
</g>
<g>
</g>
<g>
</g>
<g>
</g>
<g>
</g>
<g>
</g>
<g>
</g>
<g>
</g>
<g>
</g>
<g>
</g>
</svg>
