<?xml version="1.0" encoding="utf-8"?>
<!-- Generator: Adobe Illustrator 25.2.1, SVG Export Plug-In . SVG Version: 6.00 Build 0)  -->
<svg version="1.1" id="Layer_1" xmlns="http://www.w3.org/2000/svg" xmlns:xlink="http://www.w3.org/1999/xlink" x="0px" y="0px"
	 viewBox="0 0 457 457" style="enable-background:new 0 0 457 457;" xml:space="preserve">
<style type="text/css">
	.st0{fill:#006FB5;}
</style>
<g>
	<g>
		<path class="st0" d="M191.6,388.5c-1.6,0-3.2-0.4-4.6-1.3C145.8,362.1,11.3,269.4,11.3,132.6c0-58.6,47.6-106.2,106.2-106.2
			c36,0,68.3,16.6,87.5,44.3c19.3-27.7,51.5-44.3,87.5-44.3c58.6,0,106.2,47.6,106.2,106.2c0,14.6-1.5,29.4-4.6,44.1
			c-1,4.8-5.7,7.7-10.4,6.8c-4.8-1-7.8-5.7-6.8-10.4c2.8-13.5,4.2-27.1,4.2-40.5c0-48.9-39.7-88.6-88.6-88.6
			c-34.8,0-65.3,18.4-79.6,47.9c-3,6.1-12.9,6.1-15.8,0C182.7,62.4,152.2,44,117.5,44c-48.9,0-88.6,39.7-88.6,88.6
			c0,127.6,128.1,215.7,167.3,239.6c4.2,2.5,5.5,7.9,2.9,12.1C197.5,387,194.6,388.5,191.6,388.5L191.6,388.5z"/>
	</g>
	<g>
		<path class="st0" d="M328.3,449.1c-1.2,0-2.3-0.2-3.4-0.7c-4.2-1.7-102.3-44.1-102.3-130.8v-73.6c0-3.8,2.4-7.1,6-8.3l96.9-32.7
			c1.8-0.6,3.8-0.6,5.6,0l96.9,32.7c3.6,1.2,6,4.6,6,8.3v73.6c0,86.6-98.1,129-102.3,130.8C330.6,448.9,329.5,449.1,328.3,449.1
			L328.3,449.1z M240.3,250.4v67.3c0,66.7,71.4,104.9,88.1,113c16.6-8,88.1-46.5,88.1-113v-67.3l-88.1-29.7L240.3,250.4z"/>
	</g>
	<g>
		<path class="st0" d="M319.5,361.1c-0.2,0-0.3,0-0.5,0c-2.5-0.1-4.8-1.3-6.4-3.3l-35.2-44c-3-3.8-2.4-9.3,1.4-12.4
			c3.8-3,9.4-2.4,12.4,1.4l29.1,36.4l54.7-54.7c3.4-3.4,9-3.4,12.5,0c3.4,3.4,3.4,9,0,12.5l-61.6,61.6
			C324.1,360.1,321.8,361.1,319.5,361.1z"/>
	</g>
</g>
<g>
</g>
<g>
</g>
<g>
</g>
<g>
</g>
<g>
</g>
<g>
</g>
<g>
</g>
<g>
</g>
<g>
</g>
<g>
</g>
<g>
</g>
<g>
</g>
<g>
</g>
<g>
</g>
<g>
</g>
</svg>
