<?xml version="1.0" encoding="utf-8"?>
<!-- Generator: Adobe Illustrator 25.2.1, SVG Export Plug-In . SVG Version: 6.00 Build 0)  -->
<svg version="1.1" id="Layer_1" xmlns="http://www.w3.org/2000/svg" xmlns:xlink="http://www.w3.org/1999/xlink" x="0px" y="0px"
	 viewBox="0 0 457 457" style="enable-background:new 0 0 457 457;" xml:space="preserve">
<style type="text/css">
	.st0{fill:#FFFFFF;}
</style>
<g>
	<g>
		<path class="st0" d="M190.3,93.7c0.1,0.1,0.1,0.2,0.1,0.3l-4.5,26.2c-1.4,13,6.6,18.3,18.9,13.7l23.5-12.4c0.1-0.1,0.2-0.1,0.3,0
			l23.5,12.4c10.7,5.2,19.9-1.7,18.9-13.7L266.6,94c0-0.1,0-0.2,0.1-0.3l19-18.5c8.4-9.1,5.1-20.7-7.2-22.2l-26.3-3.8
			c-0.1,0-0.2-0.1-0.3-0.2l-11.8-23.8c-4.8-9.7-17.7-9.7-23.3,0L205.1,49c-0.1,0.1-0.2,0.2-0.3,0.2L178.5,53
			c-13.8,3.5-15.9,13.9-7.2,22.2L190.3,93.7z M180.3,65.5l26.3-3.8c4.2-0.6,7.9-3.3,9.8-7.1l11.8-23.8c0.2-0.3,0.4-0.3,0.6,0
			l11.8,23.8c1.9,3.8,5.6,6.5,9.8,7.1l26.3,3.8c0.3,0.1,0.4,0.3,0.2,0.6l-19,18.5c-3.1,3-4.5,7.3-3.7,11.5l4.5,26.2
			c0,0.3-0.2,0.5-0.5,0.4l-23.5-12.4c-4-2-8.1-2-12.1,0l-23.5,12.4c-0.3,0.1-0.5,0-0.5-0.4l4.5-26.2c0.7-4.2-0.7-8.5-3.7-11.5
			l-19-18.5C180.1,66,179.7,65.6,180.3,65.5L180.3,65.5z"/>
	</g>
	<g>
		<path class="st0" d="M307.1,149h-26.2c-3.5,0-6.3,2.8-6.3,6.3v19.8h-32.2c-3.5,0-6.3,2.8-6.3,6.3s2.8,6.3,6.3,6.3h32.2v13.6h-92.1
			v-13.6h32.3c3.5,0,6.3-2.8,6.3-6.3s-2.8-6.3-6.3-6.3h-32.3v-19.8c0-3.5-2.8-6.3-6.3-6.3h-26.2c-3.5,0-6.3,2.8-6.3,6.3v221.8
			c0,3.5,2.8,6.3,6.3,6.3c3.5,0,6.3-2.8,6.3-6.3V161.6h13.5v275.3h-13.5v-32.3c0-3.5-2.8-6.3-6.3-6.3c-3.5,0-6.3,2.8-6.3,6.3v38.6
			c0,3.5,2.8,6.3,6.3,6.3h26.2c3.5,0,6.3-2.8,6.3-6.3v-19.7h92.1v19.7c0,3.5,2.8,6.3,6.3,6.3h26.2c3.5,0,6.3-2.8,6.3-6.3V299.9
			c0-3.5-2.8-6.3-6.3-6.3s-6.3,2.8-6.3,6.3v137h-13.5V161.6h13.5v110.8c0,3.5,2.8,6.3,6.3,6.3s6.3-2.8,6.3-6.3V155.3
			C313.4,151.8,310.5,149,307.1,149L307.1,149z M182.5,344.8h92.1v13.6h-92.1V344.8z M182.5,332.2v-13.6h92.1v13.6H182.5z
			 M274.5,306h-92v-13.5h92L274.5,306L274.5,306z M182.5,279.8v-13.5h92.1v13.5H182.5z M274.5,253.6h-92.1v-13.6h92.1V253.6z
			 M182.5,371.1h92.1v13.6h-92.1V371.1z M274.5,214v13.4h-92.1V214H274.5z M182.5,410.9v-13.6h92.1v13.6H182.5z"/>
	</g>
	<g>
		<path class="st0" d="M351.1,70.3h-17.8c-3.5,0-6.3,2.8-6.3,6.3c0,3.5,2.8,6.3,6.3,6.3h17.8c3.5,0,6.3-2.8,6.3-6.3
			C357.4,73.1,354.6,70.3,351.1,70.3z"/>
	</g>
	<g>
		<path class="st0" d="M334.6,53.8l16.3-8.7c3.1-1.6,4.3-5.5,2.6-8.5c-1.6-3.1-5.5-4.3-8.5-2.6l-16.3,8.7c-3.1,1.6-4.4,5.5-2.6,8.5
			C328,54.4,332,55.5,334.6,53.8z"/>
	</g>
	<g>
		<path class="st0" d="M350.9,108.2l-16.3-8.7c-3.1-1.6-6.9-0.5-8.5,2.6s-0.5,6.9,2.6,8.5l16.3,8.7c3.2,1.5,6.1,0.7,8.5-2.6
			C355.1,113.7,354,109.9,350.9,108.2z"/>
	</g>
	<g>
		<path class="st0" d="M123.7,82.9c3.5,0,6.3-2.8,6.3-6.3c0-3.5-2.8-6.3-6.3-6.3h-17.8c-3.5,0-6.3,2.8-6.3,6.3
			c0,3.5,2.8,6.3,6.3,6.3H123.7z"/>
	</g>
	<g>
		<path class="st0" d="M128.3,42.6L112,34c-3.1-1.6-6.9-0.5-8.5,2.6c-1.6,3.1-0.5,6.9,2.6,8.5l16.3,8.7c3.2,1.5,6.8,0.7,8.5-2.6
			C132.6,48.1,131.4,44.2,128.3,42.6z"/>
	</g>
	<g>
		<path class="st0" d="M122.4,99.6l-16.3,8.7c-3.1,1.6-4.3,5.5-2.6,8.5c2.5,3.3,5.3,4.2,8.5,2.6l16.3-8.7c3.1-1.6,4.3-5.5,2.6-8.5
			C129.3,99.1,125.5,97.9,122.4,99.6L122.4,99.6z"/>
	</g>
</g>
<g>
</g>
<g>
</g>
<g>
</g>
<g>
</g>
<g>
</g>
<g>
</g>
<g>
</g>
<g>
</g>
<g>
</g>
<g>
</g>
<g>
</g>
<g>
</g>
<g>
</g>
<g>
</g>
<g>
</g>
</svg>
