<?xml version="1.0" encoding="utf-8"?>
<!-- Generator: Adobe Illustrator 25.2.1, SVG Export Plug-In . SVG Version: 6.00 Build 0)  -->
<svg version="1.1" id="Layer_1" xmlns="http://www.w3.org/2000/svg" xmlns:xlink="http://www.w3.org/1999/xlink" x="0px" y="0px"
	 viewBox="0 0 457 457" style="enable-background:new 0 0 457 457;" xml:space="preserve">
<style type="text/css">
	.st0{fill:#006FB5;}
</style>
<g>
	<g>
		<g>
			<path class="st0" d="M307.5,262.9l-57.4-35.3c-0.7-0.4-1.5-0.7-2.3-0.8l-18-3.2c-3.3-0.6-6.6,1.7-7.2,5c-0.6,3.3,1.7,6.6,5,7.2
				l17,3l56.4,34.7c2.8,1.7,6.5,0.9,8.4-1.8C311.3,268.8,310.4,264.7,307.5,262.9z"/>
		</g>
	</g>
	<g>
		<g>
			<path class="st0" d="M438.3,264.8c-2.3-2.5-6.3-2.6-8.8-0.3L404.5,288L289.4,174.5L438,35.1c2.5-2.3,2.6-6.3,0.3-8.8
				c-2.3-2.5-6.3-2.6-8.8-0.3L276.2,169.8c-2.5,2.4-2.6,6.5-0.1,8.9l10.2,10l-3.2,2.9l-68-5.9c-1-0.1-2.1,0.1-3.1,0.5l-53.9,24.6
				c-0.2,0-0.3-0.1-0.5-0.1l-31-5.5l2.5-6.4c1.2-3.2-0.3-6.7-3.5-8l-99.1-39.7c-3.2-1.3-6.8,0.3-8.1,3.5c-1.3,3.2,0.3,6.8,3.5,8.1
				l93.4,37.4L60.1,340.8l-34-12c-3.2-1.1-6.8,0.5-7.9,3.8c-1.1,3.2,0.5,6.8,3.8,7.9l39.7,14c3.1,1.1,6.6-0.5,7.8-3.6l9.2-23.5
				l24.1,13.5l-2.7,4.3c-7.5,12.2-3.7,28.3,8.5,35.8c6.5,4,14.5,4.9,21.7,2.6c1.2,7.5,5.6,14.2,12.1,18.2c6.5,4,14.5,4.9,21.7,2.6
				c1.2,7.5,5.6,14.2,12.1,18.2c6.5,4,14.5,4.9,21.7,2.6c1.2,7.5,5.6,14.2,12.1,18.2c9.4,5.8,21.9,4.9,30.4-2.2
				c2.1-1.8,4-3.9,5.4-6.3l4.2-6.8l3.5,2.1c9.4,5.8,21.9,4.9,30.4-2.2c2.1-1.8,4-3.9,5.4-6.3c2.9-4.7,4.1-10,3.8-15.2
				c2,0.5,4,0.7,6,0.7c9,0,17.5-4.7,22.2-12.4c2.8-4.6,4.1-9.9,3.8-15.2c2,0.5,4,0.7,6,0.7c9,0,17.5-4.7,22.2-12.4
				c2.8-4.6,4.1-9.9,3.8-15.2c2,0.5,4,0.7,6,0.7c8.8,0,17.3-4.4,22.2-12.4c7.5-12.2,3.7-28.3-8.5-35.8l-4.2-2.6l14.2-14.9L400,301
				c2.3,2.3,6.2,2.4,8.6,0.1l29.5-27.5C440.5,271.3,440.7,267.3,438.3,264.8z M133.9,366c-3.9,6.4-12.4,8.4-18.8,4.4
				c-6.4-3.9-8.4-12.4-4.4-18.8l34.7-56.2c3.9-6.3,12.2-8.3,18.5-4.6c6.6,3.9,8.4,12.9,4.4,19.3L133.9,366z M167.6,386.9
				c-3.9,6.4-12.4,8.4-18.8,4.4c-6.3-3.9-8.3-12.4-4.4-18.8l27.8-45c3.9-6.3,12.2-8.3,18.5-4.6c6.6,3.9,8.4,12.9,4.4,19.3
				L167.6,386.9z M201.4,407.7c-1.9,3.1-4.9,5.3-8.5,6.1c-3.5,0.8-7.2,0.2-10.3-1.7c-6.3-3.9-8.3-12.4-4.4-18.8l20.8-33.7
				c3.9-6.3,12.2-8.3,18.5-4.6c6.6,3.9,8.4,12.9,4.4,19.3L201.4,407.7z M248.8,406.4l-13.6,22.1c-3.9,6.3-12.4,8.3-18.8,4.4
				c-6.3-3.9-8.3-12.4-4.4-18.8l13.9-22.5c3.9-6.3,12.2-8.3,18.5-4.6C250.9,391,252.7,400,248.8,406.4z M361.6,296.1l-30.7-18.9
				c-2.8-1.8-6.8-0.8-8.5,2c-1.8,2.8-0.8,6.8,2,8.5l45.8,28.1c6.4,3.9,8.4,12.3,4.5,18.7c-3.9,6.4-12.3,8.4-18.8,4.5L306.8,309
				c-2.9-1.8-6.7-0.9-8.5,2c-1.8,2.9-0.9,6.7,2,8.5l37.8,23.2c6.3,3.9,8.4,12.4,4.5,18.7c-3.9,6.3-12.4,8.4-18.7,4.5L289.6,345
				c-2.9-1.8-6.7-0.9-8.5,2c-1.8,2.9-0.9,6.7,2,8.5l23,14.1c6.3,3.9,8.4,12.4,4.5,18.7c-3.9,6.3-12.4,8.4-18.7,4.5
				c0,0-20.2-12.4-20.4-12.5c-2.8-1.4-6.3-0.4-8,2.3c-1.8,2.9-0.9,6.7,2,8.5l8.6,5.3c6.4,3.9,8.4,12.3,4.5,18.7
				c-3.9,6.3-12.4,8.4-18.7,4.5l-3.5-2.1l2.9-4.7c3.7-6,4.9-13.5,3.2-20.4c-1.7-6.8-5.9-12.5-11.8-16.1c-4.6-2.7-9.8-3.9-14.9-3.5
				c0.9-4.1,1-8.4-0.1-12.5c-1.7-6.8-5.9-12.5-11.8-16.1c-4.6-2.7-9.8-3.9-14.9-3.5c2.6-11-2.1-22.8-11.9-28.6
				c-4.6-2.7-9.8-3.9-14.9-3.5c2.6-11-2.1-22.8-11.9-28.6c-12.1-7.2-28-3.2-35.4,8.7l-25.5,41.4l-26.1-14.6l38.6-98.7l21,3.7
				c-6,7.4-7.7,17.9-3.4,27.1c4.4,9.6,13.8,15.2,23.7,15.2c3.6,0,7.3-0.8,10.7-2.3l36.3-16.5c3.1-1.4,4.5-5.1,3.1-8.2
				c-1.4-3.1-5.1-4.5-8.2-3.1l-36.3,16.5c-6.8,3.1-14.9,0.1-18.1-6.8c-3.1-6.8-0.1-14.9,6.8-18.1l58.1-26.4l69.1,5.9
				c0.2,0,0.4,0,0.5,0c1.5,0,3-0.5,4.1-1.6l5.9-5.2l82.8,81.7L361.6,296.1z"/>
		</g>
	</g>
</g>
<g>
</g>
<g>
</g>
<g>
</g>
<g>
</g>
<g>
</g>
<g>
</g>
<g>
</g>
<g>
</g>
<g>
</g>
<g>
</g>
<g>
</g>
<g>
</g>
<g>
</g>
<g>
</g>
<g>
</g>
</svg>
