<?xml version="1.0" encoding="utf-8"?>
<!-- Generator: Adobe Illustrator 25.2.1, SVG Export Plug-In . SVG Version: 6.00 Build 0)  -->
<svg version="1.1" id="Layer_1" xmlns="http://www.w3.org/2000/svg" xmlns:xlink="http://www.w3.org/1999/xlink" x="0px" y="0px"
	 viewBox="0 0 457 457" style="enable-background:new 0 0 457 457;" xml:space="preserve">
<style type="text/css">
	.st0{fill:#006FB5;}
</style>
<g>
	<path class="st0" d="M257.2,216.3c-2.4-2.4-6.3-2.4-8.7,0c-2.4,2.4-2.4,6.3,0,8.7l76.6,76.6c3.2,3.2,3.2,8.5,0,11.7
		c-3.2,3.2-8.5,3.2-11.7,0L140,140l-2-2c-3.2-3.2-3.2-8.5,0-11.7c3.2-3.2,8.5-3.2,11.7,0l78.2,77.9c2.4,2.4,6.3,2.4,8.7,0
		c2.4-2.4,2.4-6.3,0-8.7l-78.2-77.9c-8-8-21.1-8-29.2,0c-7.7,7.7-8,20.2-0.9,28.3l-24.9,60.4c0,0,0,0,0,0c-0.1,0.2-0.2,0.5-0.3,0.7
		L87.1,246l0,0c-0.1,0.2-0.2,0.5-0.3,0.7L20.1,408.8c-0.1,0.1-0.1,0.3-0.1,0.4c-2.6,7.7-4.5,16.3,0.7,21.5c2.4,2.4,5.6,3.3,9,3.3
		c4,0,8.5-1.2,12.7-2.6c0.1,0,0.3-0.1,0.4-0.1l224.1-92.3c0.1-0.1,0.3-0.1,0.4-0.2l38.3-15.7c3.9,3.4,8.8,5.2,13.7,5.2
		c5.3,0,10.6-2,14.6-6c8-8,8-21.1,0-29.2L257.2,216.3z M137.8,155.3l119.6,119.6l-140.4-68.9L137.8,155.3z M38.2,419.7
		c-4.9,1.6-7.4,1.9-8.6,1.9c0-1.2,0.3-3.6,1.9-8.3l20.2-49l55.2,27.1L38.2,419.7z M175.3,363.3l-40.1-19.6c-3.1-1.5-6.8-0.2-8.3,2.8
		c-1.5,3.1-0.2,6.8,2.8,8.3l30.2,14.8l-37.7,15.5l-65.8-32.3l11.7-28.3l34.7,17c0.9,0.4,1.8,0.6,2.7,0.6c2.3,0,4.5-1.3,5.6-3.5
		c1.5-3.1,0.2-6.8-2.8-8.3L72.8,313l23-55.8l153.8,75.4L175.3,363.3z M264.9,326.3l-164.3-80.6l11.7-28.3l172.2,84.5l11.7,11.7
		L264.9,326.3z"/>
	<path class="st0" d="M433.5,168.2c-26.9-1.7-52.1,4.4-75,18.2c-20,12-35.5,28.1-46.8,40.7c-2.3,2.6-2,6.5,0.5,8.7
		c1.2,1,2.6,1.6,4.1,1.6c1.7,0,3.4-0.7,4.6-2.1c25.7-28.9,59.1-58,111.8-54.8c3.4,0.2,6.3-2.4,6.6-5.8
		C439.5,171.4,436.9,168.4,433.5,168.2z"/>
	<path class="st0" d="M205.7,138.8c1.5,0,2.9-0.5,4.1-1.6c23-20.7,49.3-50,48.4-94.3c-0.1-3.4-2.9-6.1-6.3-6.1
		c-3.4,0.1-6.1,2.9-6.1,6.3c0.8,39-21.9,64.8-44.3,84.8c-2.5,2.3-2.8,6.2-0.5,8.7C202.3,138.1,204,138.8,205.7,138.8L205.7,138.8z"
		/>
	<path class="st0" d="M275.7,203c-2.3,2.5-2.1,6.4,0.4,8.7c1.2,1.1,2.7,1.6,4.2,1.6c1.7,0,3.3-0.7,4.6-2
		c11.4-12.5,27-28.4,45.7-40.9c2.8-1.9,3.6-5.7,1.7-8.6s-5.7-3.6-8.6-1.7C303.8,173.4,287.6,190,275.7,203z"/>
	<path class="st0" d="M243.6,146.2c-2.6,2.3-2.8,6.2-0.5,8.7c1.2,1.4,2.9,2.1,4.6,2.1c1.5,0,2.9-0.5,4.1-1.6
		c13.1-11.6,29.7-27.6,42-48.3c14.1-23.7,20.5-49.7,18.7-77.4c-0.2-3.4-3.2-6-6.6-5.8c-3.4,0.2-6,3.1-5.8,6.6
		C303.7,85.1,273.5,119.6,243.6,146.2L243.6,146.2z"/>
	<path class="st0" d="M344,108.1l15.3,7.7l7.7,15.3c1.7,3.4,4.1,5.1,7.1,5.1h0c3,0,5.4-1.7,7.1-5.1l7.7-15.3l15.2-7.7
		c3.4-1.7,5.1-4.1,5.1-7.1c0-3-1.7-5.4-5.1-7.1L389,86.1l-7.7-15.2c-1.7-3.4-4.1-5.1-7.1-5.1c0,0,0,0,0,0c-3,0-5.4,1.7-7.1,5.1
		l-7.7,15.3L344,93.8c-3.4,1.7-5.1,4.1-5.1,7.1C338.9,103.9,340.6,106.3,344,108.1L344,108.1z M366.7,96.2c1.2-0.6,2.1-1.5,2.7-2.7
		l4.7-9.3l4.7,9.3c0.6,1.2,1.5,2.1,2.7,2.7l9.3,4.7l-9.3,4.7c-1.2,0.6-2.1,1.5-2.7,2.7l-4.7,9.3l-4.7-9.3c-0.6-1.2-1.5-2.1-2.7-2.7
		l-9.3-4.7L366.7,96.2z"/>
	<path class="st0" d="M393.5,260.9c-10.7,0-19.5,8.7-19.5,19.5c0,10.8,8.7,19.5,19.5,19.5c10.8,0,19.5-8.7,19.5-19.5
		C413,269.7,404.3,260.9,393.5,260.9z M393.5,287.5c-3.9,0-7.1-3.2-7.1-7.1s3.2-7.1,7.1-7.1c3.9,0,7.1,3.2,7.1,7.1
		S397.5,287.5,393.5,287.5z"/>
	<path class="st0" d="M171.8,75.2c-10.8,0-19.6-8.8-19.6-19.6s8.8-19.6,19.6-19.6c10.8,0,19.6,8.8,19.6,19.6S182.7,75.2,171.8,75.2
		L171.8,75.2z M171.8,48.3c-4,0-7.2,3.2-7.2,7.2s3.2,7.2,7.2,7.2c4,0,7.2-3.2,7.2-7.2S175.8,48.3,171.8,48.3z"/>
</g>
<g>
</g>
<g>
</g>
<g>
</g>
<g>
</g>
<g>
</g>
<g>
</g>
<g>
</g>
<g>
</g>
<g>
</g>
<g>
</g>
<g>
</g>
<g>
</g>
<g>
</g>
<g>
</g>
<g>
</g>
</svg>
