<?xml version="1.0" encoding="utf-8"?>
<!-- Generator: Adobe Illustrator 25.2.1, SVG Export Plug-In . SVG Version: 6.00 Build 0)  -->
<svg version="1.1" id="Layer_1" xmlns="http://www.w3.org/2000/svg" xmlns:xlink="http://www.w3.org/1999/xlink" x="0px" y="0px"
	 viewBox="0 0 457 457" style="enable-background:new 0 0 457 457;" xml:space="preserve">
<style type="text/css">
	.st0{fill:#006FB5;}
</style>
<path class="st0" d="M438.7,197c-4.5-6.9-11.4-11.6-19.4-13.4c5.2-9.9,4.9-22.2-1.6-32.1c-4.7-7.1-11.7-11.6-19.4-13.3
	c1.4-2.6,2.4-5.4,3-8.4c1.7-8.3,0-16.7-4.6-23.7c-4.5-6.9-11.4-11.6-19.4-13.4c5.2-9.9,4.9-22.2-1.6-32.1
	c-9.6-14.5-29.2-18.5-43.7-8.9l-31.4,20.8c-16.7-8.5-34.6-14.5-53-18c-5.8-8.9-12.6-17.1-20.2-24.5l-13-12.6
	c-9.5-9.2-24.4-10.6-35.5-3.3c-13.1,8.7-16.7,26.3-8,39.4c0.3,0.5,0.7,1,1,1.6c-42.6,8.6-81.4,31.2-110.2,64.4
	c-31.2,36-48.4,82-48.4,129.7c0,9.1,0.6,18.3,1.9,27.2c9.5,69.3,55.6,128.9,120.4,155.8c24,9.9,49.5,15,75.7,15
	c41.5,0,81.3-12.7,115-36.8c32.9-23.5,57.6-56,71.3-93.9c1.3-3.5-0.6-7.4-4.1-8.7c-3.5-1.3-7.4,0.6-8.7,4.1
	c-12.8,35.3-35.7,65.6-66.4,87.5c-31.4,22.4-68.4,34.2-107,34.2c-20,0-39.5-3.2-58.2-9.4l55.4-36.7c0,0,0,0,0,0c0,0,0,0,0,0l46-30.5
	h0c4.1-2.7,7-6.9,7.9-11.8c1-4.9,0-9.8-2.7-13.9l-0.6-0.9l8.9-5.9c6.4-4.2,14-5.9,21.6-4.7c10.9,1.8,22-0.6,31.3-6.8l74.1-49.1
	c-0.5,6.4-1.3,12.8-2.5,19.1c-0.7,3.7,1.8,7.2,5.4,7.9c0.4,0.1,0.8,0.1,1.2,0.1c3.2,0,6.1-2.3,6.7-5.6c1.9-10.1,3-20.5,3.3-30.9
	l20.9-13.8c7-4.7,11.8-11.8,13.5-20C445,212.5,443.4,204,438.7,197z M287.3,81.3l-20.8,13.8l-4.1-11c-1.7-4.6-3.7-9.1-5.8-13.5
	C267.1,73.2,277.4,76.8,287.3,81.3z M71.8,128.5C99.4,96.6,137,75.2,178.2,67.8c6.6,16,8.2,33.9,4.2,50.9l-16.6,71.7
	c-2.6-2.8-6-4.7-9.8-5.5c-4.9-1-9.8,0-13.9,2.7l-47,31.1c0,0,0,0,0,0c0,0,0,0,0,0l-67.8,44.9c-0.4-4.8-0.6-9.6-0.6-14.4
	C26.7,204.8,42.7,162,71.8,128.5z M248.9,342.5c-0.3,1.3-1,2.4-2.1,3.1h0l-40.4,26.8l-75-111.9c-2.1-3.1-6.3-4-9.4-1.9
	c-3.1,2.1-4,6.3-1.9,9.4L195,380l-57.7,38.2c-57.3-25.1-98.4-78-108.2-139.6l67.9-44.8l7.8,11.7c1.3,2,3.5,3,5.7,3
	c1.3,0,2.6-0.4,3.8-1.2c3.1-2.1,4-6.3,1.9-9.4l-7.8-11.6l41.3-27.3c1.1-0.7,2.4-1,3.7-0.7c1.3,0.3,2.4,1,3.1,2.1l91.7,138.5
	C248.9,339.9,249.1,341.2,248.9,342.5z M430,218c-1,4.7-3.7,8.7-7.7,11.4l-23.9,15.8c0,0,0,0,0,0l-85.2,56.5
	c-6.4,4.2-14,5.9-21.6,4.7c-10.9-1.8-22,0.6-31.3,6.8l-8.9,5.9l-75.1-113.4l19.4-83.9c5-21.6,2.4-44.4-7.2-64.2
	c-0.1-0.2-0.2-0.4-0.3-0.6c-1.8-3.7-3.9-7.4-6.2-10.9c-4.5-6.8-2.6-16,4.2-20.6c5.8-3.8,13.5-3.1,18.5,1.7l13,12.6
	c14.1,13.6,25.1,30.5,31.9,48.9l7.1,19.1c0,0,0,0.1,0,0.1c0,0,0,0.1,0.1,0.1c0.1,0.1,0.1,0.2,0.1,0.3c0.1,0.3,0.3,0.6,0.5,0.8
	c2.1,3.1,6.3,4,9.4,1.9l72.6-48.1c8.3-5.5,19.4-3.2,24.9,5.1c5.5,8.3,3.2,19.4-5.1,24.9l-6.3,4.2c0,0,0,0,0,0l-14.1,9.3
	c0,0,0,0-0.1,0c-0.1,0.1-0.2,0.1-0.2,0.2c-2.9,2.1-3.7,6.2-1.6,9.2c2.1,3.1,6.3,4,9.4,1.9l14.1-9.3c4-2.6,8.8-3.6,13.5-2.6
	s8.7,3.7,11.4,7.7c2.6,4,3.6,8.8,2.6,13.5c-1,4.7-3.7,8.7-7.7,11.4L359.9,152c-3.1,2.1-4,6.3-1.9,9.4c1.3,2,3.5,3,5.7,3
	c1.3,0,2.6-0.4,3.7-1.1l3.2-2.1l10.9-7.2c8.3-5.5,19.4-3.2,24.9,5.1c5.5,8.3,3.2,19.4-5.1,24.9l-10.2,6.7c-0.1,0-0.1,0.1-0.2,0.1
	l-10,6.6c-3.1,2.1-4,6.3-1.9,9.4c1.3,2,3.5,3,5.7,3c1.3,0,2.6-0.4,3.7-1.1l3.2-2.1c0,0,0,0,0,0l10.9-7.2c4-2.6,8.8-3.6,13.5-2.6
	c4.7,1,8.7,3.7,11.4,7.7C430,208.5,431,213.3,430,218z"/>
<g>
</g>
<g>
</g>
<g>
</g>
<g>
</g>
<g>
</g>
<g>
</g>
<g>
</g>
<g>
</g>
<g>
</g>
<g>
</g>
<g>
</g>
<g>
</g>
<g>
</g>
<g>
</g>
<g>
</g>
</svg>
