<?xml version="1.0" encoding="utf-8"?>
<!-- Generator: Adobe Illustrator 25.2.1, SVG Export Plug-In . SVG Version: 6.00 Build 0)  -->
<svg version="1.1" id="Layer_1" xmlns="http://www.w3.org/2000/svg" xmlns:xlink="http://www.w3.org/1999/xlink" x="0px" y="0px"
	 viewBox="0 0 457 457" style="enable-background:new 0 0 457 457;" xml:space="preserve">
<style type="text/css">
	.st0{fill:#006FB5;}
</style>
<g>
	<g>
		<g>
			<path class="st0" d="M399,216.7c0-21.4-16.1-39.1-36.9-41.6V67.7c0-6.6-4.3-12.1-10.6-13.9c-6.3-1.7-12.8,1-16.1,6.6
				c-22.7,39-58.4,65.7-106.2,79.3c-36.1,10.3-66,8.8-66.3,8.8c-0.4,0-0.9,0-1.3,0H85.1c-38.4,0-69.6,31.2-69.6,69.6
				c0,36.2,27.7,66,63,69.3l23.1,94.8c3.1,12.6,14.2,21.3,27.1,21.3h16c8.6,0,16.6-3.9,21.9-10.7s7.2-15.5,5.2-23.8L152,287.9h9.5
				c0.4,0,0.9,0.1,1.3,0c0.3,0,30.1-1.5,66.3,8.8c47.8,13.6,83.5,40.3,106.2,79.3c2.6,4.5,7.3,7.2,12.3,7.2c1.3,0,2.6-0.2,3.8-0.5
				c6.4-1.7,10.6-7.3,10.6-13.9V261.4c20.7-2.5,36.9-20.2,36.9-41.6L399,216.7L399,216.7z M153,362.3l2.6,10.8
				c0.8,3.4,0.1,6.9-2.1,9.6c-2.1,2.7-5.4,4.3-8.9,4.3h-16c-5.2,0-9.7-3.5-11-8.6l-22-90.5h39.2l5.9,24.2h-4c-4.6,0-8.3,3.7-8.3,8.3
				s3.7,8.3,8.3,8.3h8l4.1,16.9h-2.6c-4.6,0-8.3,3.7-8.3,8.3c0,4.6,3.7,8.3,8.3,8.3H153z M154.1,235.9h-51.7c-4.6,0-8.3,3.7-8.3,8.3
				s3.7,8.3,8.3,8.3h51.7v18.7h-12.2c-0.2,0-0.3,0-0.5,0H85.1c-0.1,0-0.2,0-0.2,0c-29.1-0.1-52.7-23.8-52.7-53c0-29.2,23.8-53,53-53
				h68.9L154.1,235.9L154.1,235.9z M345.5,183.1v70.2v107.3c-24.9-38.8-63.6-66.4-112.4-80.1c-27-7.6-50.3-9.1-62.4-9.3v-27v-78.9
				c12.1-0.2,35.4-1.7,62.4-9.3c48.7-13.7,87.4-41.4,112.4-80.1V183.1z M382.3,219.8c0,12.2-8.7,22.4-20.2,24.8V192
				c11.5,2.3,20.2,12.5,20.2,24.8V219.8z"/>
			<path class="st0" d="M401.5,169.7c2,0,4-0.7,5.6-2.2l24-21.9c3.4-3.1,3.6-8.4,0.5-11.8c-3.1-3.4-8.4-3.6-11.8-0.5l-24,21.9
				c-3.4,3.1-3.6,8.4-0.5,11.8C397,168.8,399.2,169.7,401.5,169.7z"/>
			<path class="st0" d="M407.1,269c-3.4-3.1-8.7-2.8-11.8,0.5s-2.8,8.7,0.5,11.8l24,21.9c1.6,1.5,3.6,2.2,5.6,2.2
				c2.3,0,4.5-0.9,6.2-2.7c3.1-3.4,2.8-8.7-0.5-11.8L407.1,269z"/>
			<path class="st0" d="M433.2,209.9h-18.4c-4.6,0-8.3,3.7-8.3,8.3s3.7,8.3,8.3,8.3h18.4c4.6,0,8.3-3.7,8.3-8.3
				S437.8,209.9,433.2,209.9z"/>
			<path class="st0" d="M75.8,241.1c-0.2-0.5-0.5-1-0.8-1.4c-0.3-0.5-0.6-0.9-1-1.3c-0.4-0.4-0.8-0.7-1.3-1
				c-0.4-0.3-0.9-0.6-1.4-0.8c-0.5-0.2-1-0.4-1.6-0.5c-1.1-0.2-2.2-0.2-3.3,0c-0.5,0.1-1.1,0.3-1.6,0.5c-0.5,0.2-1,0.5-1.4,0.8
				c-0.5,0.3-0.9,0.6-1.3,1c-0.4,0.4-0.7,0.8-1,1.3c-0.3,0.4-0.6,0.9-0.8,1.4c-0.2,0.5-0.4,1-0.5,1.6c-0.1,0.5-0.2,1.1-0.2,1.6
				c0,0.5,0.1,1.1,0.2,1.6c0.1,0.5,0.3,1,0.5,1.6c0.2,0.5,0.5,1,0.8,1.4c0.3,0.5,0.6,0.9,1,1.3c0.4,0.4,0.8,0.7,1.3,1
				c0.4,0.3,0.9,0.6,1.4,0.8c0.5,0.2,1,0.4,1.6,0.5c0.5,0.1,1.1,0.2,1.6,0.2c0.5,0,1.1,0,1.6-0.2c0.5-0.1,1-0.3,1.6-0.5
				c0.5-0.2,1-0.5,1.4-0.8c0.5-0.3,0.9-0.7,1.3-1c0.4-0.4,0.7-0.8,1-1.3c0.3-0.4,0.6-0.9,0.8-1.4c0.2-0.5,0.4-1,0.5-1.6
				c0.1-0.5,0.2-1.1,0.2-1.6s0-1.1-0.2-1.6C76.1,242.1,76,241.6,75.8,241.1z"/>
		</g>
	</g>
</g>
<g>
</g>
<g>
</g>
<g>
</g>
<g>
</g>
<g>
</g>
<g>
</g>
<g>
</g>
<g>
</g>
<g>
</g>
<g>
</g>
<g>
</g>
<g>
</g>
<g>
</g>
<g>
</g>
<g>
</g>
</svg>
