<?xml version="1.0" encoding="utf-8"?>
<!-- Generator: Adobe Illustrator 25.2.1, SVG Export Plug-In . SVG Version: 6.00 Build 0)  -->
<svg version="1.1" id="Layer_1" xmlns="http://www.w3.org/2000/svg" xmlns:xlink="http://www.w3.org/1999/xlink" x="0px" y="0px"
	 viewBox="0 0 457 457" style="enable-background:new 0 0 457 457;" xml:space="preserve">
<style type="text/css">
	.st0{fill:#006FB5;}
</style>
<g>
	<g>
		<path class="st0" d="M408.2,337.4c12.3-21.2,18.8-45.4,18.8-70.1c0-77.1-62.7-139.8-139.8-139.8c-20.1,0-39.3,4.3-56.6,12
			c-5.7-50.4-48.5-89.6-100.3-89.6c-55.7,0-101,45.3-101,101c0,17.5,4.5,34.7,13.1,49.8c-2.4,9-4.8,17.9-7.2,26.9
			c-1.4,5.3,0.1,10.7,4,14.5c3.8,3.8,9.4,5.2,14.6,3.8c8.9-2.4,17.8-4.8,26.8-7.2c15.1,8.6,32.3,13.1,49.8,13.1
			c6.1,0,12.2-0.6,18.1-1.6c-0.7,5.6-1.1,11.4-1.1,17.2c0,24.4,6.4,48.4,18.5,69.5c2.1,3.7,6.9,5,10.6,2.9c3.7-2.1,5-6.9,2.9-10.6
			c-10.7-18.7-16.4-40.1-16.4-61.8c0-68.5,55.8-124.3,124.3-124.3s124.3,55.8,124.3,124.3c0,23-6.3,45.4-18.3,64.9
			c-1.1,1.8-1.4,4-0.9,6.1c3.8,14.2,7.6,28.4,11.4,42.5c0.3,1.2-0.2,1.9-0.7,2.4c-0.3,0.3-1.2,1-2.4,0.7c0,0-0.1,0-0.1,0
			c-14.1-3.8-28.3-7.6-42.4-11.4c-2.1-0.6-4.3-0.2-6.1,0.9c-19.5,11.9-41.9,18.3-64.9,18.3c-21.7,0-43.1-5.7-61.8-16.4
			c-3.7-2.1-8.5-0.9-10.6,2.9c-2.1,3.7-0.8,8.5,2.9,10.6c21.1,12.1,45.1,18.5,69.5,18.5c24.7,0,48.9-6.5,70.1-18.8
			c13.1,3.5,26.1,7,39.2,10.5c6.2,1.7,12.9,0,17.5-4.6c4.7-4.6,6.5-11.1,4.8-17.5C415.2,363.6,411.7,350.5,408.2,337.4L408.2,337.4z
			 M151.5,233.6c-6.9,1.8-14,2.7-21.2,2.7c-15.8,0-31.2-4.3-44.6-12.6c-1.8-1.1-4-1.4-6.1-0.9l-2.4,0.6c-8.9,2.4-17.9,4.8-26.8,7.2
			c2.6-9.7,5.2-19.4,7.8-29.2c0.6-2.1,0.2-4.3-0.9-6.1c-8.2-13.4-12.6-28.8-12.6-44.6c0-47.1,38.3-85.4,85.4-85.4
			c45.9,0,83.5,36.4,85.4,81.9C184.1,166.1,160.6,197,151.5,233.6L151.5,233.6z"/>
		<path class="st0" d="M220.3,290.4c1.3,0,2.7-0.3,3.9-1l10.1-5.9c4.8,6.5,10.9,12.1,18,16.5v33.3c0,12.8,10.5,23.3,23.3,23.3h23.3
			c12.8,0,23.3-10.5,23.3-23.3V300c7.1-4.4,13.1-10,18-16.5l10.1,5.9c1.2,0.7,2.6,1,3.9,1c2.7,0,5.3-1.4,6.7-3.9
			c2.1-3.7,0.9-8.5-2.8-10.6l-10.1-5.9c2.5-5.8,4.1-11.9,4.9-18.3h11.7c4.3,0,7.8-3.5,7.8-7.8s-3.5-7.8-7.8-7.8h-11.7
			c-0.8-6.4-2.4-12.6-4.9-18.3l10.2-5.9c3.7-2.1,5-6.9,2.8-10.6c-2.1-3.7-6.9-5-10.6-2.8l-10.2,5.9C328,188.4,308.8,178,287.2,178
			s-40.8,10.4-52.9,26.5l-10.2-5.9c-3.7-2.1-8.5-0.9-10.6,2.8c-2.1,3.7-0.9,8.5,2.8,10.6l10.2,5.9c-2.5,5.7-4.1,11.9-4.9,18.3h-11.7
			c-4.3,0-7.8,3.5-7.8,7.8c0,4.3,3.5,7.8,7.8,7.8h11.7c0.7,6.4,2.4,12.5,4.9,18.3l-10.1,5.9c-3.7,2.1-5,6.9-2.8,10.6
			C215,289,217.6,290.4,220.3,290.4L220.3,290.4z M298.8,341.1h-23.3c-4.3,0-7.8-3.5-7.8-7.8v-15.5h38.8v15.5
			C306.6,337.6,303.1,341.1,298.8,341.1z M287.2,193.5c27.8,0,50.5,22.7,50.5,50.5c0,18.8-10.3,35.9-26.9,44.7
			c-2.5,1.3-4.1,4-4.1,6.9v6.7h-38.8v-6.7c0-2.9-1.6-5.5-4.1-6.9c-16.6-8.8-26.9-25.9-26.9-44.7
			C236.7,216.2,259.3,193.5,287.2,193.5L287.2,193.5z"/>
		<path class="st0" d="M130.3,143L130.3,143c-4.3,0-7.8,3.5-7.8,7.8s3.5,7.8,7.8,7.8c4.3,0,7.8-3.5,7.8-7.8S134.6,143,130.3,143z"/>
		<path class="st0" d="M83.7,143L83.7,143c-4.3,0-7.8,3.5-7.8,7.8s3.5,7.8,7.8,7.8s7.8-3.5,7.8-7.8S88,143,83.7,143z"/>
		<path class="st0" d="M176.9,143L176.9,143c-4.3,0-7.8,3.5-7.8,7.8s3.5,7.8,7.8,7.8s7.8-3.5,7.8-7.8S181.2,143,176.9,143z"/>
		<path class="st0" d="M193.8,352.9L193.8,352.9c-4.3,0-7.8,3.5-7.8,7.8c0,4.3,3.5,7.8,7.8,7.8s7.8-3.5,7.8-7.8
			C201.6,356.4,198.1,352.9,193.8,352.9z"/>
	</g>
</g>
<g>
</g>
<g>
</g>
<g>
</g>
<g>
</g>
<g>
</g>
<g>
</g>
<g>
</g>
<g>
</g>
<g>
</g>
<g>
</g>
<g>
</g>
<g>
</g>
<g>
</g>
<g>
</g>
<g>
</g>
</svg>
