<svg xmlns="http://www.w3.org/2000/svg" viewBox="0 0 350 147.43"><defs><style>.cls-1{fill:#68a2cd;}.cls-2{fill:#d3dd82;}.cls-3{fill:#b8ce5a;}.cls-4{fill:#68a7cb;}</style></defs><title>Asset 1</title><g id="Layer_2" data-name="Layer 2"><g id="Layer_1-2" data-name="Layer 1"><rect class="cls-1" x="29.45" y="88.55" width="8.33" height="39.2" transform="translate(7.95 -2.16) rotate(4.17)"/><rect class="cls-1" x="19.34" y="87.81" width="8.33" height="39.2" transform="translate(7.87 -1.42) rotate(4.17)"/><path class="cls-1" d="M22.09,102.15A28.75,28.75,0,0,0,0,94.57l2.28-6.64a42.08,42.08,0,0,1,22.09,7.58Z"/><path class="cls-1" d="M36.6,103.21a28.76,28.76,0,0,1,22.95-4.3L58.26,92a42.08,42.08,0,0,0-23,4.3Z"/><circle class="cls-1" cx="33.62" cy="73.8" r="12.39"/><path class="cls-1" d="M21.68,107c3.22,0,3.22-5,0-5s-3.22,5,0,5Z"/><rect class="cls-1" x="67.86" y="88.15" width="8.71" height="41.16" transform="matrix(0.99, -0.14, 0.14, 0.99, -14.22, 10.93)"/><rect class="cls-1" x="57.35" y="89.6" width="8.71" height="41.16" transform="translate(-14.52 9.5) rotate(-7.88)"/><path class="cls-1" d="M59.12,105.09a30,30,0,0,0-24.27-3l.89-7.32a43.79,43.79,0,0,1,24.26,3Z"/><path class="cls-1" d="M74.19,103a30.07,30.07,0,0,1,22.57-9.44l-2.83-6.8A43.87,43.87,0,0,0,71.37,96.2Z"/><ellipse class="cls-1" cx="64.73" cy="73.45" rx="12.97" ry="13.01"/><path class="cls-1" d="M59.21,110.2c3.37,0,3.37-5.24,0-5.24s-3.38,5.24,0,5.24Z"/><path class="cls-1" d="M48.54,44.45A26,26,0,0,1,34,51.78l-2.55,6.69L25.83,51.7A26,26,0,1,1,51.31,10.88a21.59,21.59,0,0,0-2.77,33.57Z"/><path class="cls-2" d="M56.17,26a26,26,0,0,1-7.63,18.42,21.59,21.59,0,0,1,2.77-33.57A25.92,25.92,0,0,1,56.17,26Z"/><path class="cls-3" d="M85,28.78A21.61,21.61,0,0,1,71.39,48.86L68,54.67l-2.2-4.41a20.36,20.36,0,0,1-2.36.13,21.5,21.5,0,0,1-14.87-5.94,26,26,0,0,0,2.77-33.57A21.6,21.6,0,0,1,85,28.78Z"/><path class="cls-4" d="M105.63,80.23c0-6-.18-11.11-.37-15.31h12.32l.65,6.35h.19c3.36-4.86,8.59-7.38,15.21-7.38,10,0,19,8.68,19,23.24,0,16.62-10.55,24.46-20.72,24.46-5.51,0-9.8-2.24-11.85-5.23h-.19V129H105.63ZM119.82,91a14,14,0,0,0,.28,3,8.59,8.59,0,0,0,8.31,6.72c6.16,0,9.8-5.14,9.8-12.88,0-7.28-3.27-12.79-9.62-12.79a8.91,8.91,0,0,0-8.49,7.19,10.75,10.75,0,0,0-.28,2.52Z"/><path class="cls-4" d="M193.8,49.54v52.64c0,5.13.18,10.55.37,13.63h-12.6l-.65-6.72h-.19c-2.89,5.13-8.4,7.74-14.28,7.74-10.83,0-19.51-9.24-19.51-23.43-.09-15.4,9.52-24.26,20.44-24.26,5.6,0,10,2,12,5.13h.19V49.54ZM179.61,89.48a21.53,21.53,0,0,0-.19-2.52,8.53,8.53,0,0,0-8.3-7c-6.45,0-9.81,5.79-9.81,13,0,7.74,3.83,12.6,9.71,12.6a8.31,8.31,0,0,0,8.22-6.82,12,12,0,0,0,.37-3.26Z"/><path class="cls-3" d="M233.58,70.86c-.19,2.89-.38,6.72-.38,13.53v25.48c0,8.78-1.77,16-6.9,20.54-5,4.29-11.86,5.6-18.58,5.6-6,0-12.32-1.22-16.42-3.55l2.8-10.73a28,28,0,0,0,13.25,3.45c6.72,0,11.85-3.64,11.85-12v-3H219a14.6,14.6,0,0,1-12.32,6c-11.3,0-19.32-9.15-19.32-22.31,0-14.66,9.52-24,20.72-24,6.25,0,10.17,2.71,12.5,6.44h.19l.47-5.41ZM219,89.43a11.54,11.54,0,0,0-.28-2.61c-1-3.74-3.74-6.26-7.66-6.26-5.13,0-9.33,4.67-9.33,13,0,6.81,3.36,12.13,9.33,12.13a7.7,7.7,0,0,0,7.47-5.79,12.12,12.12,0,0,0,.47-3.73Z"/><path class="cls-4" d="M243.44,100.56H254.1v2.14H246v6.58h7.5v2.12H246v9h-2.55Z"/><path class="cls-4" d="M260.31,100.56v19.8h-2.56v-19.8Z"/><path class="cls-4" d="M281.7,110.25c0,6.82-4.14,10.44-9.2,10.44-5.23,0-8.9-4.06-8.9-10,0-6.29,3.91-10.41,9.2-10.41S281.7,104.38,281.7,110.25Zm-15.37.33c0,4.23,2.29,8,6.32,8s6.35-3.73,6.35-8.23c0-3.94-2.06-8.05-6.32-8.05S266.33,106.23,266.33,110.58Z"/><path class="cls-4" d="M298.86,119.72a12.69,12.69,0,0,1-5.23.94c-5.58,0-9.78-3.53-9.78-10,0-6.21,4.2-10.41,10.34-10.41a10.63,10.63,0,0,1,4.7.88l-.61,2.09a9.32,9.32,0,0,0-4-.82c-4.64,0-7.73,3-7.73,8.17,0,4.85,2.79,8,7.61,8a10.26,10.26,0,0,0,4.18-.82Z"/><path class="cls-4" d="M302.07,100.82a27,27,0,0,1,4.91-.41c2.73,0,4.49.5,5.73,1.61a5,5,0,0,1,1.55,3.77,5.19,5.19,0,0,1-3.73,5v.09c1.53.53,2.44,1.94,2.91,4a31.75,31.75,0,0,0,1.53,5.43h-2.65a26.13,26.13,0,0,1-1.32-4.73c-.59-2.73-1.65-3.76-4-3.85h-2.41v8.58h-2.55Zm2.55,9h2.62c2.73,0,4.47-1.5,4.47-3.76,0-2.56-1.86-3.67-4.56-3.7a11.15,11.15,0,0,0-2.53.23Z"/><path class="cls-4" d="M320.43,100.56v11.72c0,4.44,2,6.32,4.62,6.32,2.94,0,4.82-1.94,4.82-6.32V100.56h2.58V112.1c0,6.09-3.2,8.59-7.49,8.59-4.06,0-7.11-2.33-7.11-8.47V100.56Z"/><path class="cls-4" d="M335.54,118.86l11-16.07v-.09h-10v-2.14h13.37v1.55l-10.93,16v.09H350v2.14H335.54Z"/><path class="cls-4" d="M106.18,139.27a12.42,12.42,0,0,1,2-.16,3.32,3.32,0,0,1,2.28.68,2.2,2.2,0,0,1,.71,1.7,2.38,2.38,0,0,1-.63,1.73,3.37,3.37,0,0,1-2.48.9,3.67,3.67,0,0,1-.85-.08v3.26h-1Zm1,3.92a3.58,3.58,0,0,0,.87.08c1.27,0,2-.61,2-1.73s-.76-1.59-1.92-1.59a4.36,4.36,0,0,0-1,.08Z"/><path class="cls-4" d="M112.59,139.28a10.77,10.77,0,0,1,2-.17,3.32,3.32,0,0,1,2.35.67,2,2,0,0,1,.64,1.54,2.14,2.14,0,0,1-1.53,2.07v0a2,2,0,0,1,1.19,1.64,13.17,13.17,0,0,0,.63,2.23h-1.09a11,11,0,0,1-.54-1.94c-.24-1.12-.67-1.55-1.63-1.58h-1v3.52h-1Zm1,3.7h1.08c1.12,0,1.83-.61,1.83-1.54s-.76-1.51-1.87-1.52a4.18,4.18,0,0,0-1,.1Z"/><path class="cls-4" d="M126.05,143.15c0,2.8-1.7,4.28-3.78,4.28s-3.65-1.66-3.65-4.12,1.61-4.27,3.77-4.27S126.05,140.74,126.05,143.15Zm-6.31.13c0,1.74.94,3.3,2.59,3.3s2.61-1.54,2.61-3.38c0-1.62-.85-3.3-2.59-3.3S119.74,141.5,119.74,143.28Z"/><path class="cls-4" d="M133.59,146.94a7.58,7.58,0,0,1-2.5.44,3.82,3.82,0,0,1-4.17-4.1,4.08,4.08,0,0,1,4.4-4.19,5,5,0,0,1,2,.37l-.25.86a4.3,4.3,0,0,0-1.8-.35,3,3,0,0,0-3.27,3.27,3,3,0,0,0,3.14,3.28,3.39,3.39,0,0,0,1.39-.22v-2.42h-1.65V143h2.68Z"/><path class="cls-4" d="M135.19,139.28a10.77,10.77,0,0,1,2-.17,3.3,3.3,0,0,1,2.35.67,2,2,0,0,1,.64,1.54,2.13,2.13,0,0,1-1.53,2.07v0a2,2,0,0,1,1.19,1.64,13.17,13.17,0,0,0,.63,2.23H139.4a9.88,9.88,0,0,1-.55-1.94c-.24-1.12-.67-1.55-1.62-1.58h-1v3.52h-1.05Zm1.05,3.7h1.07c1.12,0,1.83-.61,1.83-1.54s-.76-1.51-1.87-1.52a4.15,4.15,0,0,0-1,.1Z"/><path class="cls-4" d="M143.05,144.74l-.85,2.56h-1.08l2.76-8.13h1.26l2.78,8.13h-1.13l-.86-2.56Zm2.66-.82-.8-2.34c-.18-.53-.3-1-.42-1.48h0c-.12.48-.25,1-.41,1.47l-.8,2.35Z"/><path class="cls-4" d="M155.9,143.73c-.06-1.13-.13-2.49-.12-3.51h0c-.28,1-.62,2-1,3.09l-1.43,3.94h-.8l-1.31-3.87c-.39-1.14-.71-2.19-.94-3.16h0c0,1-.08,2.38-.15,3.59l-.22,3.49h-1l.57-8.13h1.34l1.38,3.93c.34,1,.62,1.9.82,2.74h0c.2-.82.49-1.71.85-2.74l1.45-3.93h1.34l.5,8.13h-1Z"/><path class="cls-4" d="M159.94,144.74l-.85,2.56H158l2.76-8.13H162l2.77,8.13h-1.12l-.87-2.56Zm2.66-.82-.79-2.34c-.18-.53-.3-1-.42-1.48h0c-.12.48-.25,1-.41,1.47l-.79,2.35Z"/><path class="cls-4" d="M168.55,139.28a16,16,0,0,1,2.23-.17,4.61,4.61,0,0,1,3.29,1,3.71,3.71,0,0,1,1.15,2.91,4.3,4.3,0,0,1-1.17,3.16,5,5,0,0,1-3.59,1.17,17,17,0,0,1-1.91-.1Zm1,7.19a6.45,6.45,0,0,0,1.06.06,3.13,3.13,0,0,0,3.46-3.45c0-1.92-1.07-3.13-3.29-3.13a6.14,6.14,0,0,0-1.23.1Z"/><path class="cls-4" d="M180.78,143.49h-3.15v2.93h3.52v.88h-4.57v-8.13H181v.88h-3.34v2.57h3.15Z"/><path class="cls-4" d="M187.61,139.28a16,16,0,0,1,2.23-.17,4.61,4.61,0,0,1,3.29,1,3.71,3.71,0,0,1,1.15,2.91,4.3,4.3,0,0,1-1.17,3.16,5,5,0,0,1-3.59,1.17,17,17,0,0,1-1.91-.1Zm1,7.19a6.45,6.45,0,0,0,1.06.06,3.13,3.13,0,0,0,3.46-3.45c0-1.92-1.07-3.13-3.29-3.13a6.14,6.14,0,0,0-1.23.1Z"/><path class="cls-4" d="M199.84,143.49h-3.15v2.93h3.51v.88h-4.56v-8.13H200v.88h-3.33v2.57h3.15Z"/><path class="cls-4" d="M201.42,146a3.72,3.72,0,0,0,1.88.53c1.07,0,1.7-.57,1.7-1.38s-.43-1.2-1.53-1.62c-1.33-.47-2.15-1.16-2.15-2.3A2.34,2.34,0,0,1,204,139a3.65,3.65,0,0,1,1.8.4l-.29.86a3.2,3.2,0,0,0-1.55-.39c-1.1,0-1.53.66-1.53,1.22,0,.76.5,1.13,1.62,1.56,1.37.53,2.07,1.2,2.07,2.39s-.93,2.34-2.84,2.34a4.22,4.22,0,0,1-2.08-.52Z"/><path class="cls-4" d="M211.71,143.49h-3.16v2.93h3.52v.88H207.5v-8.13h4.39v.88h-3.34v2.57h3.16Z"/><path class="cls-4" d="M213.43,147.3v-8.13h1.15l2.6,4.11a25.05,25.05,0,0,1,1.46,2.64h0c-.09-1.08-.12-2.07-.12-3.34v-3.4h1v8.13h-1.06l-2.58-4.12a25.89,25.89,0,0,1-1.52-2.72l0,0c.06,1,.08,2,.08,3.35v3.47Z"/><path class="cls-4" d="M223.14,147.3l-2.65-8.13h1.14l1.26,4c.35,1.09.65,2.08.87,3h0c.23-.94.57-2,.93-3l1.38-4h1.12l-2.91,8.13Z"/><path class="cls-4" d="M235,143.15c0,2.8-1.7,4.28-3.78,4.28s-3.65-1.66-3.65-4.12,1.6-4.27,3.77-4.27S235,140.74,235,143.15Zm-6.31.13c0,1.74.94,3.3,2.59,3.3s2.61-1.54,2.61-3.38c0-1.62-.85-3.3-2.59-3.3S228.72,141.5,228.72,143.28Z"/><path class="cls-4" d="M236.39,139.17h1v7.25h3.48v.88h-4.52Z"/><path class="cls-4" d="M243.14,147.3l-2.65-8.13h1.14l1.26,4c.35,1.09.65,2.08.87,3h0c.23-.94.57-2,.93-3l1.38-4h1.12l-2.91,8.13Z"/><path class="cls-4" d="M249.13,139.17v8.13h-1v-8.13Z"/><path class="cls-4" d="M257.81,143.73c-.06-1.13-.13-2.49-.12-3.51h0c-.27,1-.61,2-1,3.09l-1.43,3.94h-.8l-1.31-3.87a31.6,31.6,0,0,1-.94-3.16h0c0,1-.08,2.38-.15,3.59l-.22,3.49h-1l.56-8.13h1.34L254,143.1c.34,1,.61,1.9.82,2.74h0c.21-.82.5-1.71.86-2.74l1.45-3.93h1.33l.51,8.13h-1Z"/><path class="cls-4" d="M264.86,143.49H261.7v2.93h3.52v.88h-4.57v-8.13H265v.88H261.7v2.57h3.16Z"/><path class="cls-4" d="M266.58,147.3v-8.13h1.15l2.6,4.11a25.05,25.05,0,0,1,1.46,2.64h0c-.09-1.08-.12-2.07-.12-3.34v-3.4h1v8.13h-1.06L269,143.18a25.89,25.89,0,0,1-1.52-2.72l0,0c.06,1,.09,2,.09,3.35v3.47Z"/><path class="cls-4" d="M276.05,140.07h-2.47v-.9h6v.9h-2.48v7.23h-1.06Z"/><path class="cls-4" d="M287.11,143.15c0,2.8-1.7,4.28-3.77,4.28s-3.65-1.66-3.65-4.12,1.6-4.27,3.77-4.27S287.11,140.74,287.11,143.15Zm-6.3.13c0,1.74.94,3.3,2.59,3.3S286,145,286,143.2c0-1.62-.85-3.3-2.6-3.3S280.81,141.5,280.81,143.28Z"/><path class="cls-4" d="M297.21,146.94a7.57,7.57,0,0,1-2.49.44,3.82,3.82,0,0,1-4.18-4.1,4.08,4.08,0,0,1,4.4-4.19,5,5,0,0,1,2,.37l-.25.86a4.3,4.3,0,0,0-1.8-.35,3,3,0,0,0-3.27,3.27,3,3,0,0,0,3.14,3.28,3.45,3.45,0,0,0,1.4-.22v-2.42h-1.66V143h2.68Z"/><path class="cls-4" d="M303,143.49h-3.16v2.93h3.52v.88h-4.57v-8.13h4.39v.88h-3.34v2.57H303Z"/><path class="cls-4" d="M304.74,139.28a10.77,10.77,0,0,1,2-.17,3.3,3.3,0,0,1,2.35.67,2,2,0,0,1,.64,1.54,2.13,2.13,0,0,1-1.53,2.07v0a2,2,0,0,1,1.19,1.64,13.17,13.17,0,0,0,.63,2.23h-1.09a11,11,0,0,1-.54-1.94c-.24-1.12-.67-1.55-1.63-1.58h-1v3.52h-1.05Zm1.05,3.7h1.07c1.12,0,1.83-.61,1.83-1.54s-.76-1.51-1.87-1.52a4.15,4.15,0,0,0-1,.1Z"/><path class="cls-4" d="M315.43,143.49h-3.16v2.93h3.52v.88h-4.57v-8.13h4.39v.88h-3.34v2.57h3.16Z"/><path class="cls-4" d="M317.15,147.3v-8.13h1.14l2.61,4.11a25.05,25.05,0,0,1,1.46,2.64h0c-.1-1.08-.12-2.07-.12-3.34v-3.4h1v8.13h-1.06l-2.58-4.12a25.89,25.89,0,0,1-1.52-2.72l0,0c.06,1,.09,2,.09,3.35v3.47Z"/><path class="cls-4" d="M330.75,147a5,5,0,0,1-2.14.39,3.8,3.8,0,0,1-4-4.11,4.05,4.05,0,0,1,4.25-4.27,4.46,4.46,0,0,1,1.93.36l-.26.86a3.85,3.85,0,0,0-1.64-.34,3,3,0,0,0-3.17,3.35,3,3,0,0,0,3.12,3.27,4.18,4.18,0,0,0,1.72-.34Z"/><path class="cls-4" d="M333.11,139.17v8.13h-1.05v-8.13Z"/><path class="cls-4" d="M336.26,144.74l-.85,2.56h-1.08l2.76-8.13h1.26l2.78,8.13H340l-.87-2.56Zm2.66-.82-.79-2.34c-.18-.53-.31-1-.43-1.48h0c-.12.48-.25,1-.41,1.47l-.79,2.35Z"/><path class="cls-4" d="M342.32,139.17h1.05v7.25h3.47v.88h-4.52Z"/></g></g></svg>