<svg xmlns="http://www.w3.org/2000/svg" viewBox="0 0 211.65 100"><defs><style>.cls-1,.cls-3{fill:none;}.cls-2,.cls-4{fill:#231f20;fill-rule:evenodd;}.cls-3,.cls-4{stroke:#231f20;stroke-miterlimit:2.61;stroke-width:0.11px;}</style></defs><title>logo-fio-cruz</title><g id="Layer_2" data-name="Layer 2"><g id="Layer_1-2" data-name="Layer 1"><rect class="cls-1" x="0.05" width="211.49" height="100"/><polygon class="cls-2" points="74.89 58.95 80.43 58.95 80.43 60.14 76.22 60.14 76.22 62.32 79.91 62.32 79.91 63.49 76.22 63.49 76.22 67.07 74.89 67.07 74.89 58.95 74.89 58.95"/><polygon class="cls-2" points="81.59 58.95 82.94 58.95 82.94 67.07 81.59 67.07 81.59 58.95 81.59 58.95"/><path class="cls-2" d="M88.25,59.91a2.24,2.24,0,0,0-1.85.82,4.23,4.23,0,0,0,0,4.57,2.5,2.5,0,0,0,3.7,0,4.23,4.23,0,0,0,0-4.57,2.24,2.24,0,0,0-1.85-.82Zm0-1.18a3.7,3.7,0,0,1,2.86,1.15,5.25,5.25,0,0,1,0,6.27,4.14,4.14,0,0,1-5.72,0,5.28,5.28,0,0,1,0-6.29,3.69,3.69,0,0,1,2.86-1.14Z"/><path class="cls-2" d="M100.38,61.49H99a1.66,1.66,0,0,0-.65-1.14A2.29,2.29,0,0,0,97,59.94a2.2,2.2,0,0,0-1.8.79A3.5,3.5,0,0,0,94.54,63a3.67,3.67,0,0,0,.65,2.29,2.31,2.31,0,0,0,3.25.3,2,2,0,0,0,.65-1.39h1.32a3.06,3.06,0,0,1-1,2.26,3.59,3.59,0,0,1-2.47.88,3.45,3.45,0,0,1-2.74-1.14,4.62,4.62,0,0,1-1-3.15,4.51,4.51,0,0,1,1-3.14A3.59,3.59,0,0,1,97,58.73a3.63,3.63,0,0,1,2.37.74,2.81,2.81,0,0,1,1,2Z"/><path class="cls-2" d="M103.05,60.09v2.5H105a2,2,0,0,0,1.22-.3,1.19,1.19,0,0,0,.37-1,1.11,1.11,0,0,0-.37-.94,1.86,1.86,0,0,0-1.19-.29Zm-1.33-1.15h3.5l.36,0h.07a2.27,2.27,0,0,1,1.68.6,2.53,2.53,0,0,1,.31,2.84,1.66,1.66,0,0,1-.86.7,1.26,1.26,0,0,1,.71.51,2.27,2.27,0,0,1,.26,1.12l.07,1.17h0c0,.5.14.81.34.92v.24h-1.51a1.31,1.31,0,0,1-.14-.38,5.5,5.5,0,0,1-.07-.69l0-1a1.53,1.53,0,0,0-.33-1,1.43,1.43,0,0,0-1-.26h-2v3.34h-1.34V58.94Z"/><path class="cls-2" d="M109.42,58.94h1.36V64a2.26,2.26,0,0,0,.45,1.55,2.19,2.19,0,0,0,2.81,0A2.23,2.23,0,0,0,114.5,64V58.94h1.36v5.13a3.23,3.23,0,1,1-6.44,0V58.94Z"/><polygon class="cls-2" points="117.16 58.95 123.27 58.95 123.27 60.14 118.59 65.87 123.23 65.87 123.23 67.07 116.94 67.07 116.94 65.94 121.67 60.12 117.16 60.12 117.16 58.95 117.16 58.95"/><path class="cls-2" d="M75.76,22.75v7h-1V21.54h1.58l2,6.25c.05.18.1.32.12.41s0,.19.07.26q0-.21.09-.36l.09-.31,2.1-6.25h1.59v8.17H81.34v-7l-.09.36c0,.12-.07.23-.11.35L79,29.71H78l-2-6.25a2.58,2.58,0,0,1-.1-.33c0-.12-.06-.25-.08-.38Z"/><path class="cls-2" d="M84.05,22.67V21.54h1v1.13Zm0,7V23.77h1v5.94Z"/><path class="cls-2" d="M90.53,29.71V26.05a2,2,0,0,0-.27-1.21,1.14,1.14,0,0,0-.93-.33A1.73,1.73,0,0,0,88,25a1.84,1.84,0,0,0-.46,1.35v3.38h-1V23.77h1v.86a2.14,2.14,0,0,1,1.9-1,3,3,0,0,1,1.14.2,1.57,1.57,0,0,1,.71.61,1.7,1.7,0,0,1,.2.51,5,5,0,0,1,.06.92v3.85Z"/><path class="cls-2" d="M93,22.67V21.54h1v1.13Zm0,7V23.77h1v5.94Z"/><path class="cls-2" d="M95.15,27.78h1a1.24,1.24,0,0,0,.44.91,1.63,1.63,0,0,0,1.07.31,1.79,1.79,0,0,0,1-.25.79.79,0,0,0,.37-.69.63.63,0,0,0-.19-.5,1.53,1.53,0,0,0-.72-.3L97,27a2.81,2.81,0,0,1-1.31-.6,1.66,1.66,0,0,1,.23-2.32,2.6,2.6,0,0,1,1.64-.46,2.64,2.64,0,0,1,1.68.49,1.59,1.59,0,0,1,.63,1.32v0h-1a1,1,0,0,0-.39-.73,1.52,1.52,0,0,0-1-.26,1.63,1.63,0,0,0-.91.21.7.7,0,0,0-.32.62.56.56,0,0,0,.2.45,1.86,1.86,0,0,0,.73.28l1,.23a3,3,0,0,1,1.42.63,1.43,1.43,0,0,1,.39,1.08,1.73,1.73,0,0,1-.65,1.44,2.9,2.9,0,0,1-1.82.51,2.57,2.57,0,0,1-1.76-.54,2,2,0,0,1-.63-1.57Z"/><path class="cls-2" d="M102.37,28.21a.87.87,0,0,0,.11.54.58.58,0,0,0,.42.13h.21l.33,0v.85l-.45.06-.35,0a1.43,1.43,0,0,1-1-.27,1.34,1.34,0,0,1-.28-1v-4h-.89v-.79h.89V22.11h1v1.66h1.07v.79h-1.07v3.65Z"/><path class="cls-2" d="M105.15,26.2h3.26a1.94,1.94,0,0,0-.42-1.29,1.76,1.76,0,0,0-2.35,0,2,2,0,0,0-.49,1.29Zm3.24,1.59h1a2.42,2.42,0,0,1-.85,1.55,2.72,2.72,0,0,1-1.75.56,2.43,2.43,0,0,1-2-.83,3.34,3.34,0,0,1-.72-2.27,3.62,3.62,0,0,1,.71-2.37,2.43,2.43,0,0,1,2-.86,2.51,2.51,0,0,1,2,.79,3.24,3.24,0,0,1,.71,2.23v.27c0,.06,0,.11,0,.17h-4.29a2.19,2.19,0,0,0,.47,1.45,1.58,1.58,0,0,0,1.25.52,1.56,1.56,0,0,0,1-.32,1.44,1.44,0,0,0,.52-.89ZM106,23,107.15,21h1.11L106.68,23Z"/><path class="cls-2" d="M110.6,29.71V23.77h1v1.06a1.93,1.93,0,0,1,.65-.89,1.65,1.65,0,0,1,1-.3h.16l.1,0v1.05h-.24a1.6,1.6,0,0,0-1.21.44,1.74,1.74,0,0,0-.42,1.26v3.31Z"/><path class="cls-2" d="M114.37,22.67V21.54h1v1.13Zm0,7V23.77h1v5.94Z"/><path class="cls-2" d="M117.61,26.73a2.6,2.6,0,0,0,.48,1.69,1.62,1.62,0,0,0,1.35.58,1.6,1.6,0,0,0,1.34-.58,2.66,2.66,0,0,0,.47-1.69,2.65,2.65,0,0,0-.47-1.68,1.61,1.61,0,0,0-1.34-.59,1.66,1.66,0,0,0-1.36.59,2.61,2.61,0,0,0-.47,1.68Zm-1,0a3.34,3.34,0,0,1,.75-2.32,2.63,2.63,0,0,1,2.09-.84,2.7,2.7,0,0,1,2.1.83,3.36,3.36,0,0,1,.75,2.33,3.39,3.39,0,0,1-.74,2.33,3.07,3.07,0,0,1-4.2,0,3.35,3.35,0,0,1-.75-2.33Z"/><path class="cls-2" d="M130.87,26.7a2.64,2.64,0,0,0-.45-1.67,1.59,1.59,0,0,0-1.32-.56,1.52,1.52,0,0,0-1.3.62,2.82,2.82,0,0,0-.46,1.74,2.43,2.43,0,0,0,.47,1.59,1.58,1.58,0,0,0,1.3.58,1.54,1.54,0,0,0,1.3-.59,2.74,2.74,0,0,0,.46-1.71Zm.93-5.16v8.17h-1V29a2.72,2.72,0,0,1-.87.7,2.49,2.49,0,0,1-1.06.23A2.33,2.33,0,0,1,127,29a3.47,3.47,0,0,1-.71-2.28,3.55,3.55,0,0,1,.71-2.32,2.34,2.34,0,0,1,1.9-.87,2.57,2.57,0,0,1,1.1.23,2.39,2.39,0,0,1,.83.7v-3Z"/><path class="cls-2" d="M137,28.92a3.33,3.33,0,0,1-1,.73,2.64,2.64,0,0,1-1.11.24,2,2,0,0,1-1.42-.47,1.72,1.72,0,0,1-.51-1.31,1.64,1.64,0,0,1,.5-1.27,2.77,2.77,0,0,1,1.53-.6l.7-.08a4.48,4.48,0,0,0,.94-.15.36.36,0,0,0,.22-.17,1.15,1.15,0,0,0,.06-.47.77.77,0,0,0-.33-.68,1.84,1.84,0,0,0-1-.23,1.61,1.61,0,0,0-1,.28,1,1,0,0,0-.35.82h-.95v0a1.77,1.77,0,0,1,.63-1.43,2.74,2.74,0,0,1,1.75-.52,2.78,2.78,0,0,1,1.75.45,1.66,1.66,0,0,1,.56,1.4v3a.87.87,0,0,0,.09.49c0,.08.15.11.3.11h.11l.15,0v.77l-.32.07-.26,0a1.1,1.1,0,0,1-.75-.22A.83.83,0,0,1,137,29v0Zm-.09-2.24a4.12,4.12,0,0,1-1.37.34l-.52.08a1.35,1.35,0,0,0-.78.32.89.89,0,0,0-.24.68.84.84,0,0,0,.28.68,1.17,1.17,0,0,0,.79.24,2.06,2.06,0,0,0,1.32-.41,1.24,1.24,0,0,0,.52-1v-.89Z"/><path class="cls-2" d="M142.38,27h1.07a1.87,1.87,0,0,0,.59,1.41,2.17,2.17,0,0,0,1.53.53,2.45,2.45,0,0,0,1.5-.4,1.27,1.27,0,0,0,.55-1.09c0-.62-.69-1.1-2.05-1.42l-.19-.05a5.21,5.21,0,0,1-2.2-.88,1.75,1.75,0,0,1-.54-1.38,2.17,2.17,0,0,1,.8-1.75,3.23,3.23,0,0,1,2.13-.66,3.1,3.1,0,0,1,2.13.69,2.47,2.47,0,0,1,.78,1.91h-1.06a1.77,1.77,0,0,0-.55-1.26,2.06,2.06,0,0,0-1.38-.44,2.15,2.15,0,0,0-1.3.36,1.12,1.12,0,0,0-.49.95c0,.63.67,1.11,2,1.42l.46.11.12,0a4.66,4.66,0,0,1,1.75.69,1.74,1.74,0,0,1,.5.67,2.28,2.28,0,0,1,.17.89,2.33,2.33,0,0,1-.84,1.88,3.53,3.53,0,0,1-2.29.69,3.34,3.34,0,0,1-2.32-.75,3,3,0,0,1-.89-2.15Z"/><path class="cls-2" d="M153.65,28.92a3.33,3.33,0,0,1-1,.73,2.64,2.64,0,0,1-1.11.24,2,2,0,0,1-1.42-.47,1.72,1.72,0,0,1-.51-1.31,1.64,1.64,0,0,1,.5-1.27,2.77,2.77,0,0,1,1.53-.6l.71-.08a4.47,4.47,0,0,0,.93-.15.42.42,0,0,0,.23-.17,1.46,1.46,0,0,0,0-.47.77.77,0,0,0-.33-.68,1.82,1.82,0,0,0-1-.23,1.61,1.61,0,0,0-1,.28,1,1,0,0,0-.35.82h-1v0a1.75,1.75,0,0,1,.64-1.43,2.69,2.69,0,0,1,1.74-.52A2.78,2.78,0,0,1,154,24a1.67,1.67,0,0,1,.57,1.4v3a.89.89,0,0,0,.08.49c.05.08.15.11.3.11h.11l.15,0v.77l-.32.07-.26,0a1.1,1.1,0,0,1-.75-.22.83.83,0,0,1-.25-.65v0Zm-.09-2.24a4.05,4.05,0,0,1-1.37.34l-.52.08a1.35,1.35,0,0,0-.78.32.89.89,0,0,0-.24.68.87.87,0,0,0,.28.68,1.18,1.18,0,0,0,.79.24,2.06,2.06,0,0,0,1.32-.41,1.24,1.24,0,0,0,.52-1v-.89Z"/><path class="cls-2" d="M157.14,23.77v3.64a2,2,0,0,0,.27,1.22,1.14,1.14,0,0,0,.93.34,1.63,1.63,0,0,0,1.31-.51A2.18,2.18,0,0,0,160.1,27v-3.2h1v5.94h-1v-.89a2.13,2.13,0,0,1-.8.78,2.51,2.51,0,0,1-1.16.26,2.62,2.62,0,0,1-1.09-.21,1.59,1.59,0,0,1-.7-.6,1.55,1.55,0,0,1-.2-.51,5,5,0,0,1-.06-.92V23.77Zm.7-.81L159,21h1.11L158.5,23Z"/><path class="cls-2" d="M166.87,26.7a2.71,2.71,0,0,0-.44-1.67,1.61,1.61,0,0,0-1.33-.56,1.54,1.54,0,0,0-1.3.62,2.82,2.82,0,0,0-.46,1.74,2.49,2.49,0,0,0,.47,1.59,1.58,1.58,0,0,0,1.3.58,1.53,1.53,0,0,0,1.3-.59,2.74,2.74,0,0,0,.46-1.71Zm.93-5.16v8.17h-1V29a2.52,2.52,0,0,1-.87.7,2.46,2.46,0,0,1-1.06.23A2.32,2.32,0,0,1,163,29a3.42,3.42,0,0,1-.71-2.28,3.5,3.5,0,0,1,.71-2.32,2.31,2.31,0,0,1,1.89-.87,2.57,2.57,0,0,1,1.1.23,2.31,2.31,0,0,1,.83.7v-3Z"/><path class="cls-2" d="M170.12,26.2h3.27a1.89,1.89,0,0,0-.43-1.29,1.75,1.75,0,0,0-2.34,0,2.06,2.06,0,0,0-.5,1.29Zm3.24,1.59h1a2.47,2.47,0,0,1-.85,1.55,2.74,2.74,0,0,1-1.75.56,2.41,2.41,0,0,1-1.95-.83,3.34,3.34,0,0,1-.72-2.27,3.62,3.62,0,0,1,.71-2.37,2.41,2.41,0,0,1,2-.86,2.54,2.54,0,0,1,2,.79,3.24,3.24,0,0,1,.7,2.23v.27c0,.06,0,.11,0,.17h-4.29a2.19,2.19,0,0,0,.47,1.45,1.75,1.75,0,0,0,2.25.2,1.38,1.38,0,0,0,.51-.89Z"/><polygon class="cls-2" points="75.01 82.32 75.01 74.15 80.87 74.15 80.87 75.85 77.09 75.85 77.09 77.54 80.37 77.54 80.37 79.23 77.09 79.23 77.09 82.32 75.01 82.32 75.01 82.32"/><path class="cls-2" d="M87.28,76.29v6H85.35v-.83a2.42,2.42,0,0,1-.8.74,2.15,2.15,0,0,1-1,.24A2,2,0,0,1,82,82a2,2,0,0,1-.5-1.52V76.29h2v3.37a2.07,2.07,0,0,0,.18,1,.74.74,0,0,0,.65.28.85.85,0,0,0,.75-.35,1.94,1.94,0,0,0,.24-1.11V76.29Z"/><path class="cls-2" d="M88.65,82.32v-6h1.93v.83a2.06,2.06,0,0,1,.76-.74,2.25,2.25,0,0,1,1.07-.24,2,2,0,0,1,1.53.53,2.54,2.54,0,0,1,.48,1.73v3.92h-2v-3a3.14,3.14,0,0,0-.18-1.36.72.72,0,0,0-.66-.29.85.85,0,0,0-.76.35,2.07,2.07,0,0,0-.23,1.1v3.23Z"/><path class="cls-2" d="M101.73,74.15v8.17h-2v-.79a2.27,2.27,0,0,1-.77.72,2.08,2.08,0,0,1-1,.24,2.25,2.25,0,0,1-1.83-.87,3.54,3.54,0,0,1-.71-2.29A3.65,3.65,0,0,1,96.14,77a2.19,2.19,0,0,1,1.81-.9,2.3,2.3,0,0,1,1.06.24,2,2,0,0,1,.76.7v-2.9Zm-4.26,5.09a2.06,2.06,0,0,0,.31,1.24,1.08,1.08,0,0,0,1.72,0,2.26,2.26,0,0,0,.29-1.25,1.94,1.94,0,0,0-.3-1.17,1,1,0,0,0-.87-.42,1,1,0,0,0-.84.43,2,2,0,0,0-.31,1.16Z"/><path class="cls-2" d="M106.53,79.48a3.12,3.12,0,0,1-.8.27l-.42.09a1.06,1.06,0,0,0-.5.26.56.56,0,0,0-.15.41.7.7,0,0,0,.2.52.74.74,0,0,0,.53.2,1.17,1.17,0,0,0,.82-.29,1,1,0,0,0,.32-.77v-.69Zm2.17,2.84h-2l-.06-.3c0-.1,0-.21,0-.32a2.78,2.78,0,0,1-.89.61,2.46,2.46,0,0,1-1,.2A1.89,1.89,0,0,1,103.3,82a1.69,1.69,0,0,1-.51-1.29,1.84,1.84,0,0,1,.39-1.22,2.24,2.24,0,0,1,1.21-.66l1.12-.21c.68-.11,1-.28,1-.49V78a.43.43,0,0,0-.2-.4,1,1,0,0,0-.58-.14,1.13,1.13,0,0,0-.67.18.75.75,0,0,0-.31.5H103a2.09,2.09,0,0,1,.84-1.52,3.42,3.42,0,0,1,2-.5,4.11,4.11,0,0,1,1.36.2,1.65,1.65,0,0,1,1.17,1.26,7.27,7.27,0,0,1,.08,1.25v2.29a2.13,2.13,0,0,0,.08.64.47.47,0,0,0,.22.31v.23Z"/><path class="cls-2" d="M115.31,80.09a2.62,2.62,0,0,1-.92,1.78,3.06,3.06,0,0,1-2,.64,2.84,2.84,0,0,1-2.17-.86,3.18,3.18,0,0,1-.82-2.28,3.39,3.39,0,0,1,.83-2.41,3,3,0,0,1,2.26-.88,3,3,0,0,1,2,.62,2.37,2.37,0,0,1,.85,1.73h-2a1.13,1.13,0,0,0-.3-.64.8.8,0,0,0-.57-.21.87.87,0,0,0-.78.44,2.48,2.48,0,0,0-.27,1.29,2.39,2.39,0,0,0,.26,1.24.83.83,0,0,0,.76.41.88.88,0,0,0,.62-.22,1.14,1.14,0,0,0,.32-.65Zm-4.25,4.66V84a7.34,7.34,0,0,0,.83.18,3.47,3.47,0,0,0,.67.07.59.59,0,0,0,.36-.1.38.38,0,0,0,.12-.3.3.3,0,0,0-.16-.27,1.2,1.2,0,0,0-.5-.08h-.31V82.32h.64v.46h.1a1.37,1.37,0,0,1,.94.28,1,1,0,0,1,.33.79,1,1,0,0,1-.36.85,1.58,1.58,0,0,1-1,.31,4,4,0,0,1-.72-.07c-.26,0-.56-.11-.89-.19Z"/><path class="cls-2" d="M119.71,79.48a3.12,3.12,0,0,1-.8.27l-.42.09a1.11,1.11,0,0,0-.5.26.56.56,0,0,0-.15.41.7.7,0,0,0,.2.52.74.74,0,0,0,.53.2,1.17,1.17,0,0,0,.82-.29,1,1,0,0,0,.32-.77v-.69Zm2.17,2.84h-2c0-.1,0-.2-.05-.3a3.06,3.06,0,0,1,0-.32,2.68,2.68,0,0,1-.89.61,2.46,2.46,0,0,1-1,.2,1.92,1.92,0,0,1-1.37-.48,1.69,1.69,0,0,1-.51-1.29,1.79,1.79,0,0,1,.4-1.22,2.18,2.18,0,0,1,1.2-.66l1.12-.21c.68-.11,1-.28,1-.49V78a.45.45,0,0,0-.19-.4,1,1,0,0,0-.59-.14,1.13,1.13,0,0,0-.67.18.74.74,0,0,0-.3.5h-1.82a2.13,2.13,0,0,1,.84-1.52,3.43,3.43,0,0,1,2-.5,4.09,4.09,0,0,1,1.35.2,1.8,1.8,0,0,1,.86.58,1.7,1.7,0,0,1,.31.68,6.18,6.18,0,0,1,.09,1.25v2.29a2.18,2.18,0,0,0,.07.64.47.47,0,0,0,.22.31v.23Zm-1.13-8.56a2.55,2.55,0,0,1-.46,1.07,1,1,0,0,1-.76.34h-.22l-.2,0L118.6,75l-.22,0h-.15a.4.4,0,0,0-.3.1.77.77,0,0,0-.2.32h-.66a2.31,2.31,0,0,1,.44-1,1,1,0,0,1,.75-.33h.23l.27.06.53.15.14,0h.17a.41.41,0,0,0,.3-.12.69.69,0,0,0,.19-.36Z"/><path class="cls-2" d="M124.58,79.3a2.27,2.27,0,0,0,.31,1.27,1.07,1.07,0,0,0,1.74,0,2.23,2.23,0,0,0,.31-1.26,2.21,2.21,0,0,0-.31-1.26,1,1,0,0,0-.87-.44,1,1,0,0,0-.87.44,2.21,2.21,0,0,0-.31,1.26Zm-2,0a3.2,3.2,0,0,1,.85-2.37,3.67,3.67,0,0,1,4.7,0,3.73,3.73,0,0,1,0,4.74,3.69,3.69,0,0,1-4.71,0,3.24,3.24,0,0,1-.84-2.37Z"/><path class="cls-2" d="M135.24,78.24a3.11,3.11,0,0,0,.51,1.92,1.94,1.94,0,0,0,2.92,0,3.79,3.79,0,0,0,0-3.83,1.94,1.94,0,0,0-2.92,0,3.08,3.08,0,0,0-.51,1.91Zm-2.12,0a4.39,4.39,0,0,1,1.1-3.14,4.45,4.45,0,0,1,6,0,5,5,0,0,1,0,6.29,4.45,4.45,0,0,1-6,0,4.39,4.39,0,0,1-1.1-3.15Z"/><path class="cls-2" d="M142.18,80.48h2a.81.81,0,0,0,.29.6,1.29,1.29,0,0,0,.77.2,1.22,1.22,0,0,0,.65-.16.5.5,0,0,0,.24-.44c0-.23-.31-.42-.93-.58-.34-.09-.6-.16-.8-.23a4.29,4.29,0,0,1-1.55-.77,1.4,1.4,0,0,1-.42-1.06,1.69,1.69,0,0,1,.7-1.44,3.13,3.13,0,0,1,1.92-.52,3.86,3.86,0,0,1,2,.44,1.7,1.7,0,0,1,.8,1.33H146a.69.69,0,0,0-.27-.45,1.16,1.16,0,0,0-.6-.14,1,1,0,0,0-.55.13.47.47,0,0,0-.19.39c0,.23.32.44,1,.61l.37.1,1.24.39a2.18,2.18,0,0,1,.51.25,1.66,1.66,0,0,1,.48.55,1.75,1.75,0,0,1,.15.74,1.79,1.79,0,0,1-.76,1.54,3.58,3.58,0,0,1-2.14.55A3.62,3.62,0,0,1,143,82a1.92,1.92,0,0,1-.86-1.5Z"/><polygon class="cls-2" points="150.25 82.32 148.47 76.29 150.48 76.29 151.34 80.43 152.07 76.29 154.1 76.29 154.85 80.43 155.71 76.29 157.72 76.29 155.94 82.32 153.91 82.32 153.1 78.34 152.25 82.32 150.25 82.32 150.25 82.32"/><path class="cls-2" d="M161.88,79.48a3,3,0,0,1-.79.27l-.43.09a1.11,1.11,0,0,0-.5.26.56.56,0,0,0-.15.41.7.7,0,0,0,.2.52.74.74,0,0,0,.53.2,1.17,1.17,0,0,0,.82-.29,1,1,0,0,0,.32-.77v-.69Zm2.18,2.84h-2c0-.1,0-.2,0-.3a3.06,3.06,0,0,1-.05-.32,2.68,2.68,0,0,1-.89.61,2.44,2.44,0,0,1-1,.2,1.93,1.93,0,0,1-1.38-.48,1.69,1.69,0,0,1-.51-1.29,1.79,1.79,0,0,1,.4-1.22,2.18,2.18,0,0,1,1.2-.66l1.12-.21c.68-.11,1-.28,1-.49V78a.45.45,0,0,0-.19-.4,1,1,0,0,0-.59-.14,1.13,1.13,0,0,0-.67.18.74.74,0,0,0-.3.5h-1.82a2.13,2.13,0,0,1,.84-1.52,3.43,3.43,0,0,1,2-.5,4.09,4.09,0,0,1,1.35.2,1.8,1.8,0,0,1,.86.58,1.7,1.7,0,0,1,.31.68,6.18,6.18,0,0,1,.09,1.25v2.29a2.18,2.18,0,0,0,.07.64.48.48,0,0,0,.23.31v.23Z"/><polygon class="cls-2" points="165.06 82.32 165.06 74.15 167.04 74.15 167.04 82.32 165.06 82.32 165.06 82.32"/><path class="cls-2" d="M174.4,74.15v8.17h-2v-.79a2.18,2.18,0,0,1-.77.72,2,2,0,0,1-1,.24,2.25,2.25,0,0,1-1.84-.87,3.54,3.54,0,0,1-.7-2.29,3.59,3.59,0,0,1,.71-2.32,2.19,2.19,0,0,1,1.8-.9,2.27,2.27,0,0,1,1.06.24,2,2,0,0,1,.76.7v-2.9Zm-4.25,5.09a2.14,2.14,0,0,0,.3,1.24,1,1,0,0,0,.87.43,1,1,0,0,0,.85-.42,2.18,2.18,0,0,0,.3-1.25,1.94,1.94,0,0,0-.31-1.17,1,1,0,0,0-.86-.42,1,1,0,0,0-.84.43,1.9,1.9,0,0,0-.31,1.16Z"/><path class="cls-2" d="M177.46,79.3a2.27,2.27,0,0,0,.3,1.27,1,1,0,0,0,.87.44,1,1,0,0,0,.87-.45,2.72,2.72,0,0,0,0-2.52,1.08,1.08,0,0,0-1.74,0,2.21,2.21,0,0,0-.3,1.26Zm-2,0a3.2,3.2,0,0,1,.85-2.37,3.66,3.66,0,0,1,4.69,0,3.73,3.73,0,0,1,0,4.74,3.67,3.67,0,0,1-4.7,0,3.24,3.24,0,0,1-.84-2.37Z"/><path class="cls-2" d="M193.58,79.46a3.54,3.54,0,0,1-1.16,2.28,3.66,3.66,0,0,1-2.44.81,3.8,3.8,0,0,1-2.89-1.17A4.33,4.33,0,0,1,186,78.3a4.46,4.46,0,0,1,1.11-3.17,4,4,0,0,1,3-1.18,3.64,3.64,0,0,1,2.43.79,3,3,0,0,1,1.07,2.13h-2a1.48,1.48,0,0,0-.55-.88,1.68,1.68,0,0,0-1.05-.3,1.64,1.64,0,0,0-1.39.69,3.82,3.82,0,0,0,0,3.76,1.6,1.6,0,0,0,1.36.66,1.73,1.73,0,0,0,1.13-.35,1.53,1.53,0,0,0,.53-1Z"/><path class="cls-2" d="M194.68,82.32v-6h1.9v1.06a2.11,2.11,0,0,1,.79-.91,2.35,2.35,0,0,1,1.19-.3v2a1,1,0,0,0-.25,0h-.23a1.84,1.84,0,0,0-.76.14,1.12,1.12,0,0,0-.47.42,1.45,1.45,0,0,0-.16.54,10.3,10.3,0,0,0,0,1.14v2Z"/><path class="cls-2" d="M205.19,76.29v6h-1.93v-.83a2.33,2.33,0,0,1-.8.74,2.11,2.11,0,0,1-1,.24,2,2,0,0,1-1.51-.52,2.09,2.09,0,0,1-.5-1.52V76.29h2v3.37a1.94,1.94,0,0,0,.19,1,.72.72,0,0,0,.64.28.83.83,0,0,0,.75-.35,1.94,1.94,0,0,0,.24-1.11V76.29Z"/><polygon class="cls-2" points="206.09 82.32 206.09 80.86 209.09 77.71 206.28 77.71 206.28 76.29 211.55 76.29 211.55 77.71 208.57 80.86 211.65 80.86 211.65 82.32 206.09 82.32 206.09 82.32"/><path class="cls-2" d="M41.59,33.24,42.91,33l-1.32.24Zm0,0H20.52L19,33l.09.22h-1.5V31.32H44.37v1.91H42.8l.1-.21-1.31.21Z"/><path class="cls-3" d="M41.59,33.24,42.91,33l-1.32.24Zm0,0H20.52L19,33l.09.22h-1.5V31.32H44.37v1.91H42.8l.1-.21"/><polygon class="cls-4" points="19.15 33.21 19.49 33.98 19.49 45.12 17.59 45.12 17.59 33.21 19.15 33.21 19.15 33.21"/><polygon class="cls-4" points="42.87 33.21 42.53 33.98 42.53 45.12 44.43 45.12 44.43 33.21 42.87 33.21 42.87 33.21"/><polygon class="cls-4" points="0.06 45.12 0.06 43.22 3.87 43.22 3.87 45.12 0.06 45.12 0.06 45.12"/><polygon class="cls-4" points="1.4 76.87 1.4 45.14 3.3 45.14 3.3 76.87 1.4 76.87 1.4 76.87"/><polygon class="cls-4" points="0.06 45.12 0.06 43.22 3.87 43.22 3.87 45.12 0.06 45.12 0.06 45.12"/><polygon class="cls-4" points="17.56 45.12 17.56 43.22 13.75 43.22 13.75 45.12 17.56 45.12 17.56 45.12"/><polygon class="cls-4" points="12.2 45.12 12.2 43.22 19.49 43.22 19.49 45.12 12.2 45.12 12.2 45.12"/><polygon class="cls-4" points="0.06 82.74 0.06 80.83 61.68 80.83 61.68 82.74 0.06 82.74 0.06 82.74"/><polygon class="cls-4" points="61.71 45.04 61.71 43.13 57.9 43.13 57.9 45.04 61.71 45.04 61.71 45.04"/><polygon class="cls-4" points="60.37 76.79 60.37 45.05 58.47 45.05 58.47 76.79 60.37 76.79 60.37 76.79"/><polygon class="cls-4" points="3.32 45.12 3.32 30.54 5.23 30.54 5.23 45.12 3.32 45.12 3.32 45.12"/><polygon class="cls-4" points="14.04 45.12 14.04 30.54 12.14 30.54 12.14 45.12 14.04 45.12 14.04 45.12"/><polygon class="cls-4" points="58.61 45.12 58.61 30.51 56.7 30.51 56.7 45.12 58.61 45.12 58.61 45.12"/><polygon class="cls-4" points="44.29 45.12 44.29 43.22 48.31 43.22 48.31 45.12 44.29 45.12 44.29 45.12"/><polygon class="cls-4" points="47.72 45.12 47.72 30.54 49.63 30.54 49.63 45.12 47.72 45.12 47.72 45.12"/><polygon class="cls-4" points="0.13 58.73 0.13 56.92 0.74 56.92 1.42 56.92 1.42 59.87 0.13 58.73 0.13 58.73"/><polygon class="cls-4" points="0.13 69.03 0.13 67.22 0.74 67.22 1.42 67.22 1.42 70.17 0.13 69.03 0.13 69.03"/><polygon class="cls-4" points="0.13 45.08 0.13 43.27 0.74 43.27 1.42 43.27 1.42 46.21 0.13 45.08 0.13 45.08"/><polygon class="cls-4" points="28.7 30.28 27.23 30.28 26.24 31.32 29.68 31.32 28.7 30.28 28.7 30.28"/><polygon class="cls-4" points="34.56 30.28 33.09 30.28 32.11 31.32 35.55 31.32 34.56 30.28 34.56 30.28"/><polygon class="cls-4" points="61.64 58.65 61.64 56.84 61.02 56.84 60.35 56.84 60.35 59.78 61.64 58.65 61.64 58.65"/><polygon class="cls-4" points="61.64 68.95 61.64 67.14 61.02 67.14 60.35 67.14 60.35 70.09 61.64 68.95 61.64 68.95"/><polygon class="cls-4" points="61.64 44.99 61.64 43.18 61.02 43.18 60.35 43.18 60.35 46.13 61.64 44.99 61.64 44.99"/><path class="cls-2" d="M3.32,76.87,2,79.18l1.32-2.31Zm0,0H1.42L.13,78v4.08H2V79.18l1.32-2.31Z"/><path class="cls-3" d="M3.32,76.87,2,79.18m1.32-2.31H1.42L.13,78v4.08H2V79.18l1.32-2.31Z"/><path class="cls-2" d="M58.44,76.87l1.32,2.31-1.32-2.31Zm0,0h1.91L61.64,78v4.08H59.76V79.18l-1.32-2.31Z"/><path class="cls-3" d="M58.44,76.87l1.32,2.31m-1.32-2.31h1.91L61.64,78v4.08H59.76V79.18l-1.32-2.31Zm-57,0H3.27"/><polygon class="cls-4" points="3.32 32.39 3.32 30.48 6.35 30.48 6.35 32.39 3.32 32.39 3.32 32.39"/><polygon class="cls-4" points="14.04 32.39 14.04 30.48 11.02 30.48 11.02 32.39 14.04 32.39 14.04 32.39"/><path class="cls-4" d="M11.06,28.64a2.69,2.69,0,0,0,.86-2.09,3.25,3.25,0,0,0-6.5,0,3.06,3.06,0,0,0,.89,2.15l0,3.72h-2v-2.8a7,7,0,0,1-.86-3,5.24,5.24,0,0,1,5.16-5.19,5.24,5.24,0,0,1,5.16,5.19,7,7,0,0,1-.86,3l0,2.8H11l.06-3.78Z"/><polygon class="cls-4" points="7.77 21.83 8.32 15.6 9.09 15.6 9.61 21.83 7.77 21.83 7.77 21.83"/><polygon class="cls-4" points="52.17 21.83 52.73 15.6 53.49 15.6 54.01 21.83 52.17 21.83 52.17 21.83"/><path class="cls-4" d="M55.55,28.64a2.72,2.72,0,0,0,.86-2.09,3.26,3.26,0,0,0-6.51,0,3.11,3.11,0,0,0,.89,2.15l0,3.72h-2v-2.8a7,7,0,0,1-.86-3,5.16,5.16,0,1,1,10.31,0,7,7,0,0,1-.86,3l0,2.8H55.55V28.64Z"/><polygon class="cls-4" points="19.65 30.2 18.18 30.2 17.63 31.24 20.64 31.24 19.65 30.2 19.65 30.2"/><polygon class="cls-4" points="16.54 33.31 16.54 31.83 17.59 31.28 17.59 34.29 16.54 33.31 16.54 33.31"/><polygon class="cls-4" points="42.37 30.2 43.84 30.2 44.39 31.24 41.38 31.24 42.37 30.2 42.37 30.2"/><polygon class="cls-4" points="45.48 33.31 45.48 31.83 44.43 31.28 44.43 34.29 45.48 33.31 45.48 33.31"/><path class="cls-4" d="M8.7,19a1.19,1.19,0,1,1-1.19,1.18A1.18,1.18,0,0,1,8.7,19Z"/><path class="cls-4" d="M53.09,19a1.19,1.19,0,1,1-1.18,1.18A1.18,1.18,0,0,1,53.09,19Z"/><path class="cls-2" d="M8.66,15.13a.4.4,0,1,1-.4.4.4.4,0,0,1,.4-.4Z"/><path class="cls-2" d="M53.15,15.13a.4.4,0,1,1-.4.4.4.4,0,0,1,.4-.4Z"/></g></g></svg>