<svg id="Layer_1" data-name="Layer 1" xmlns="http://www.w3.org/2000/svg" viewBox="0 0 400 400">
    <defs>
        <style>.cls-1{fill:#27a3e0;}.cls-2{fill:#e84b92;}.cls-3{fill:#f9bb41;}.cls-4{opacity:0.9;font-size:28px;fill:#fff;font-family:Lato-Bold, Lato;font-weight:700;}.cls-5{letter-spacing:-0.02em;}.cls-6{letter-spacing:0em;}.cls-7{letter-spacing:-0.02em;}.cls-8{letter-spacing:-0.03em;}.cls-9{letter-spacing:-0.01em;}.cls-10{letter-spacing:-0.03em;}</style>
    </defs>

    <title>Artboard 2 copy 4</title>
    
    <path id="seta-proposito" class="cls-1" d="M381.6,229.6l-26.44,15.26a2.53,2.53,0,0,1-1.9.25,2.48,2.48,0,0,1-1.52-1.17L228.4,29.66,239,140.92a2.48,2.48,0,0,1-1.14,2.34,2.51,2.51,0,0,1-2.6.07l-22.87-13.21L293.6,277.57a2.49,2.49,0,0,1-.94,3.37l-26.43,15.27L370.73,344Z"/>
    
    <path id="seta-autonomia" class="cls-2" d="M203.69,122.18a2.51,2.51,0,0,1,3.4-.87l26.43,15.26L222.66,22.17,118.15,70l26.44,15.27a2.49,2.49,0,0,1,.92,3.41L22,303.15l91.06-65.41a2.5,2.5,0,0,1,4,2v26.37Z"/>
    
    <path id="seta-maestria" class="cls-3" d="M18.4,311.23l93.65,66.6V347.31a2.51,2.51,0,0,1,2.5-2.5h0l246.81.41L259.74,298.74a2.5,2.5,0,0,1-.21-4.44l22.87-13.21-167.9-3.45a2.5,2.5,0,0,1-2.45-2.5V244.62Z"/>
    
    <text class="cls-4" transform="matrix(0.5, -0.87, 0.87, 0.5, 117.05, 227.13)">
        <tspan class="cls-5">A</tspan>
        <tspan class="cls-6" x="18.94" y="0">U</tspan>
        <tspan class="cls-7" x="39.73" y="0">T</tspan>
        <tspan x="55.86" y="0">ONOMI</tspan>
        <tspan class="cls-8" x="157.44" y="0">A</tspan>
    </text>

    <text class="cls-4" transform="matrix(0.5, 0.87, -0.87, 0.5, 251.77, 155.95)">P
        <tspan class="cls-9" x="17.33" y="0">R</tspan>
        <tspan x="35.03" y="0">OPÓSI</tspan>
        <tspan class="cls-7" x="121.27" y="0">T</tspan>
        <tspan x="137.4" y="0">O</tspan>
    </text>
    
    <text class="cls-4" transform="translate(97.66 320)">MAESTRI
        <tspan class="cls-10" x="120.47" y="0">A</tspan>
    </text>
</svg>